<svg width="48" height="48" viewBox="0 0 48 48" fill="none" xmlns="http://www.w3.org/2000/svg">
<ellipse cx="24" cy="33" rx="12" ry="5" stroke="#3460FE" stroke-width="3" stroke-linejoin="round"/>
<circle cx="24" cy="16" r="6" stroke="#3460FE" stroke-width="3" stroke-linejoin="round"/>
<path fill-rule="evenodd" clip-rule="evenodd" d="M12.8909 26.5229C10.4138 26.626 8.13827 27.0723 6.37185 27.7788C5.36244 28.1826 4.4449 28.7009 3.75519 29.3532C3.06231 30.0084 2.5 30.9024 2.5 32C2.5 33.0976 3.06231 33.9915 3.75519 34.6468C4.4449 35.2991 5.36244 35.8174 6.37185 36.2211C7.37143 36.621 8.53402 36.9374 9.80393 37.1555C8.81668 36.0906 8.19704 34.9006 8.03971 33.639C7.84681 33.574 7.66207 33.5061 7.48602 33.4357C6.68578 33.1156 6.13885 32.772 5.81651 32.4671C5.49961 32.1674 5.49998 32.0092 5.5 32.0002L5.5 32L5.5 31.9998C5.49998 31.9908 5.49961 31.8325 5.81651 31.5328C6.13885 31.228 6.68578 30.8844 7.48602 30.5643C7.89193 30.4019 8.34402 30.2532 8.83575 30.1216C9.66313 28.7419 11.0689 27.5119 12.8909 26.5229Z" fill="#FEFEFE"/>
<path fill-rule="evenodd" clip-rule="evenodd" d="M39.9604 33.639C39.803 34.9007 39.1834 36.0906 38.1961 37.1555C39.4661 36.9374 40.6287 36.621 41.6283 36.2211C42.6377 35.8174 43.5552 35.2991 44.2449 34.6468C44.9378 33.9915 45.5001 33.0976 45.5001 32C45.5001 30.9024 44.9378 30.0084 44.2449 29.3532C43.5552 28.7009 42.6377 28.1826 41.6283 27.7789C39.8619 27.0723 37.5863 26.626 35.1091 26.5229C36.9311 27.5119 38.3369 28.7419 39.1643 30.1216C39.6561 30.2531 40.1082 30.4019 40.5141 30.5643C41.3143 30.8844 41.8613 31.228 42.1836 31.5328C42.5005 31.8325 42.5002 31.9908 42.5001 31.9998V32V32.0002C42.5002 32.0092 42.5005 32.1674 42.1836 32.4671C41.8613 32.772 41.3143 33.1156 40.5141 33.4357C40.338 33.5061 40.1533 33.574 39.9604 33.639Z" fill="#FEFEFE"/>
<path fill-rule="evenodd" clip-rule="evenodd" d="M33.0289 20.3043C32.5891 21.2252 32.0126 22.0682 31.3257 22.8071C32.1174 23.2485 33.0294 23.5 34.0001 23.5C37.0377 23.5 39.5001 21.0376 39.5001 18C39.5001 14.9624 37.0377 12.5 34.0001 12.5C33.7916 12.5 33.5857 12.5116 33.3832 12.5342C33.7273 13.4654 33.9367 14.4619 33.9878 15.5C33.9919 15.5 33.996 15.5 34.0001 15.5C35.3808 15.5 36.5001 16.6193 36.5001 18C36.5001 19.3807 35.3808 20.5 34.0001 20.5C33.6557 20.5 33.3275 20.4303 33.0289 20.3043Z" fill="#FEFEFE"/>
<path fill-rule="evenodd" clip-rule="evenodd" d="M14.6169 12.5342C14.4144 12.5116 14.2085 12.5 14 12.5C10.9624 12.5 8.5 14.9624 8.5 18C8.5 21.0376 10.9624 23.5 14 23.5C14.9708 23.5 15.8828 23.2485 16.6744 22.8071C15.9875 22.0682 15.411 21.2252 14.9712 20.3043C14.6726 20.4303 14.3444 20.5 14 20.5C12.6193 20.5 11.5 19.3807 11.5 18C11.5 16.6193 12.6193 15.5 14 15.5C14.0041 15.5 14.0082 15.5 14.0123 15.5C14.0634 14.4619 14.2728 13.4654 14.6169 12.5342Z" fill="#FEFEFE"/>
</svg>
