<svg width="48" height="48" viewBox="0 0 48 48" fill="none" xmlns="http://www.w3.org/2000/svg">
<g clip-path="url(#clip0_302_2678)">
<path d="M5.81657 13.5526C1.46244 21.0945 2.16079 30.3632 7.59641 37.1657C7.71938 37.3196 7.81083 37.4962 7.86554 37.6854C7.92026 37.8747 7.93716 38.0728 7.91529 38.2686C7.89343 38.4644 7.83321 38.6539 7.73809 38.8264C7.64297 38.9989 7.5148 39.151 7.36091 39.274C7.20702 39.3969 7.03041 39.4884 6.84118 39.5431C6.65194 39.5978 6.45378 39.6147 6.25801 39.5928C5.86264 39.5487 5.501 39.3493 5.25266 39.0385C2.23918 35.2666 0.433062 30.6737 0.0701345 25.8595C-0.292793 21.0453 0.804338 16.2335 3.21827 12.0525C5.6322 7.87144 9.25076 4.51542 13.6014 2.42264C17.9521 0.329859 22.8327 -0.402431 27.606 0.321389C27.888 0.364151 28.1519 0.486388 28.3668 0.673775C28.5817 0.861162 28.7388 1.10593 28.8196 1.3794C28.9004 1.65287 28.9016 1.9437 28.823 2.21781C28.7444 2.49193 28.5893 2.73796 28.3759 2.92708L22.4021 8.2217C22.2546 8.35236 22.0829 8.4527 21.8967 8.51699C21.7105 8.58128 21.5135 8.60827 21.3169 8.59641C21.1202 8.58456 20.9279 8.53409 20.7507 8.44788C20.5736 8.36168 20.4152 8.24144 20.2845 8.09401C20.1539 7.94659 20.0535 7.77488 19.9892 7.58868C19.925 7.40248 19.898 7.20543 19.9098 7.0088C19.9217 6.81217 19.9722 6.6198 20.0584 6.44268C20.1446 6.26555 20.2648 6.10714 20.4122 5.97648L23.7192 3.04576C16.3759 3.12348 9.58785 7.02067 5.81657 13.5526ZM47.9156 22.0615C47.5238 17.3112 45.7244 12.7856 42.7472 9.0632C42.6243 8.90931 42.4722 8.78114 42.2997 8.68602C42.1272 8.5909 41.9376 8.53069 41.7419 8.50882C41.5461 8.48695 41.3479 8.50386 41.1587 8.55857C40.9695 8.61329 40.7929 8.70474 40.639 8.8277C40.4851 8.95067 40.3569 9.10274 40.2618 9.27524C40.1667 9.44774 40.1065 9.63728 40.0846 9.83305C40.0627 10.0288 40.0796 10.227 40.1343 10.4162C40.1891 10.6055 40.2805 10.7821 40.4035 10.936C45.839 17.7384 46.5376 27.007 42.1832 34.549C38.403 41.0965 31.5301 44.9498 24.0505 44.9498C23.9142 44.9498 23.7777 44.9485 23.6409 44.9459L26.9133 41.7678C27.1987 41.4906 27.3623 41.1113 27.368 40.7135C27.3738 40.3157 27.2213 39.9318 26.944 39.6465C26.6668 39.3611 26.2875 39.1975 25.8897 39.1918C25.4919 39.186 25.1081 39.3385 24.8227 39.6158L19.2117 45.0655C19.0122 45.2591 18.8706 45.5044 18.8024 45.7739C18.7343 46.0434 18.7424 46.3265 18.8258 46.5917C18.9092 46.8569 19.0647 47.0937 19.2749 47.2756C19.4851 47.4575 19.7416 47.5775 20.016 47.6221C21.3536 47.8403 22.7066 47.9502 24.0619 47.9508C32.6015 47.9508 40.4563 43.5403 44.7814 36.0488C47.2353 31.8179 48.3295 26.935 47.9156 22.0615Z" fill="#3460FE"/>
<path d="M22.653 31.1985C22.9343 31.4798 23.0924 31.8614 23.0924 32.2592C23.0923 32.6569 22.9343 33.0383 22.6531 33.3195C22.3718 33.6008 21.9904 33.7588 21.5927 33.7589H11.2512C10.997 33.759 10.7469 33.6944 10.5245 33.5714C10.3021 33.4483 10.1146 33.2707 9.97961 33.0553C9.84464 32.8399 9.76664 32.5937 9.75292 32.3399C9.7392 32.086 9.79022 31.8329 9.90118 31.6042C11.2647 28.794 13.7691 26.8397 15.9786 25.1153C17.4986 23.9293 19.0704 22.7028 19.3223 21.7802C19.7693 20.1436 19.465 18.8511 18.4431 18.0423C17.3011 17.1388 15.4003 16.9791 14.1159 17.6787C13.1124 18.2252 12.667 19.1626 12.7923 20.465C12.8304 20.861 12.7096 21.2559 12.4566 21.5628C12.2035 21.8698 11.8388 22.0636 11.4428 22.1017C11.0469 22.1398 10.6519 22.019 10.345 21.7659C10.038 21.5129 9.84421 21.1482 9.80611 20.7522C9.56546 18.2503 10.6134 16.17 12.6812 15.0441C15.0178 13.7717 18.2237 14.0433 20.3045 15.6896C22.2856 17.2574 22.9825 19.7654 22.2164 22.5709C21.7018 24.4549 19.9049 25.8571 17.8243 27.4808C16.562 28.4658 15.1909 29.5357 14.093 30.7592H21.5924C21.9902 30.7592 22.3717 30.9172 22.653 31.1985Z" fill="#FEFEFE"/>
<path fill-rule="evenodd" clip-rule="evenodd" d="M23.1422 26.8967L33.1079 14.7865C33.3043 14.5478 33.5697 14.3756 33.8677 14.2934C34.1657 14.2113 34.4819 14.2232 34.7729 14.3276C35.0638 14.4321 35.3155 14.6238 35.4933 14.8767C35.6711 15.1296 35.7664 15.4313 35.7662 15.7404V26.3502H36.749C37.1468 26.3502 37.5284 26.5082 37.8097 26.7896C38.091 27.0709 38.249 27.4524 38.249 27.8502C38.249 28.248 38.091 28.6296 37.8097 28.9109C37.5284 29.1922 37.1468 29.3502 36.749 29.3502H35.7662V32.2592C35.7662 32.657 35.6082 33.0385 35.3269 33.3198C35.0456 33.6011 34.6641 33.7592 34.2662 33.7592C33.8684 33.7592 33.4869 33.6011 33.2056 33.3198C32.9243 33.0385 32.7662 32.657 32.7662 32.2592V29.3502H24.3006C24.0162 29.3503 23.7377 29.2695 23.4974 29.1173C23.2572 28.9651 23.0652 28.7478 22.9437 28.4906C22.8223 28.2334 22.7765 27.9471 22.8117 27.6648C22.8468 27.3826 22.9615 27.1162 23.1422 26.8967ZM32.7662 26.3498H27.4774L32.7662 19.9235V26.3498Z" fill="#FEFEFE"/>
</g>
<defs>
<clipPath id="clip0_302_2678">
<rect width="48" height="48" fill="white"/>
</clipPath>
</defs>
</svg>
