<svg width="48" height="48" viewBox="0 0 48 48" fill="none" xmlns="http://www.w3.org/2000/svg">
<path d="M12 22C7.58172 22 4 18.4183 4 14C4 9.58172 7.58172 6 12 6L36 6C40.4183 6 44 9.58172 44 14C44 18.4183 40.4183 22 36 22M36 14L36 38C36 40.2091 34.2091 42 32 42H16C13.7909 42 12 40.2091 12 38V14L36 14Z" stroke="#3460FE" stroke-width="3" stroke-linejoin="round"/>
<path d="M28 30.0003L25.4142 32.5861C24.6332 33.3671 23.3668 33.3671 22.5858 32.5861L20 30.0003M24 22.0003V32.0003" stroke="#FEFEFE" stroke-width="3" stroke-linecap="round"/>
</svg>
