<svg width="24" height="24" viewBox="0 0 24 24" fill="none" xmlns="http://www.w3.org/2000/svg">
<g clip-path="url(#clip0_169_5119)">
<path d="M21.0223 4.6217C21.5798 5.35222 22.0518 6.14586 22.4287 6.9867L11.7376 14.9737L7.26953 12.1352V8.72028L11.7376 11.5588L21.0223 4.6217Z" fill="#21A038"/>
<path d="M2.71147 11.8941C2.71147 11.7409 2.71516 11.5887 2.72253 11.4373L0.0147471 11.3029C0.00553065 11.499 3.27223e-06 11.697 3.27223e-06 11.8969C-0.00114881 13.4585 0.30193 15.0049 0.891862 16.4474C1.48179 17.8901 2.34695 19.2004 3.43772 20.3033L5.35842 18.3577C4.51879 17.5102 3.8527 16.5029 3.39844 15.3936C2.94419 14.2844 2.71073 13.0951 2.71147 11.8941Z" fill="url(#paint0_linear_169_5119)"/>
<path d="M11.7369 2.7472C11.888 2.7472 12.0382 2.7528 12.1875 2.76027L12.323 0.0151175C12.1289 0.0057771 11.9335 0.00110745 11.7369 0.00110745C10.1953 -0.000797767 8.66862 0.305917 7.24437 0.903639C5.82012 1.50136 4.5264 2.37832 3.4375 3.48416L5.3582 5.43071C6.19448 4.57949 7.18855 3.9042 8.28324 3.44367C9.37793 2.98314 10.5516 2.74644 11.7369 2.7472Z" fill="url(#paint1_linear_169_5119)"/>
<path d="M11.7355 21.0413C11.5844 21.0413 11.4341 21.0413 11.2839 21.0292L11.1484 23.7734C11.3432 23.7833 11.5389 23.7884 11.7355 23.7884C13.2764 23.79 14.8024 23.4831 16.2259 22.8852C17.6494 22.2873 18.9423 21.4102 20.0303 20.3044L18.1133 18.3588C17.2769 19.2095 16.2829 19.8844 15.1884 20.3448C14.094 20.8052 12.9205 21.0419 11.7355 21.0413Z" fill="url(#paint2_linear_169_5119)"/>
<path d="M16.8256 4.34332L19.1075 2.63869C17.0218 0.927018 14.4182 -0.00475142 11.7344 1.82208e-05V2.74704C13.5518 2.74476 15.327 3.30137 16.8256 4.34332Z" fill="url(#paint3_linear_169_5119)"/>
<path d="M23.4728 11.8942C23.4743 11.1796 23.4126 10.4662 23.2885 9.7627L20.7623 11.6495C20.7623 11.7308 20.7623 11.812 20.7623 11.8942C20.763 13.1722 20.4986 14.4361 19.9864 15.604C19.4742 16.7719 18.7256 17.8176 17.7891 18.6735L19.6112 20.7144C20.8287 19.6004 21.8016 18.2396 22.4669 16.7202C23.1322 15.2007 23.4749 13.5565 23.4728 11.8942Z" fill="#21A038"/>
<path d="M11.7382 21.0413C10.4771 21.0417 9.22986 20.7737 8.07735 20.2547C6.9249 19.7356 5.89284 18.977 5.04801 18.0281L3.03516 19.8737C4.13417 21.1079 5.47687 22.094 6.97617 22.7684C8.47546 23.4428 10.0979 23.7903 11.7382 23.7883V21.0413Z" fill="url(#paint4_linear_169_5119)"/>
<path d="M5.68469 5.11486L3.86353 3.07397C2.64564 4.18771 1.67235 5.54843 1.00676 7.06791C0.341187 8.58737 -0.0018146 10.2317 7.21935e-06 11.8941H2.71148C2.71092 10.6162 2.9753 9.35224 3.48748 8.18439C3.99967 7.01657 4.74824 5.9708 5.68469 5.11486Z" fill="url(#paint5_linear_169_5119)"/>
</g>
<defs>
<linearGradient id="paint0_linear_169_5119" x1="3.9861" y1="19.9605" x2="0.952465" y2="11.3074" gradientUnits="userSpaceOnUse">
<stop offset="0.14" stop-color="#F1E813"/>
<stop offset="0.3" stop-color="#E6E418"/>
<stop offset="0.58" stop-color="#C9DA26"/>
<stop offset="0.89" stop-color="#A2CC39"/>
</linearGradient>
<linearGradient id="paint1_linear_169_5119" x1="4.21167" y1="3.96986" x2="11.8675" y2="1.09106" gradientUnits="userSpaceOnUse">
<stop offset="0.06" stop-color="#0FA7DF"/>
<stop offset="0.54" stop-color="#0098F8"/>
<stop offset="0.92" stop-color="#0290EA"/>
</linearGradient>
<linearGradient id="paint2_linear_169_5119" x1="10.9697" y1="22.1304" x2="19.6091" y2="20.2046" gradientUnits="userSpaceOnUse">
<stop offset="0.12" stop-color="#A2CC39"/>
<stop offset="0.28" stop-color="#86C239"/>
<stop offset="0.87" stop-color="#219F38"/>
</linearGradient>
<linearGradient id="paint3_linear_169_5119" x1="11.1704" y1="0.920051" x2="18.5641" y2="3.17144" gradientUnits="userSpaceOnUse">
<stop offset="0.06" stop-color="#0290EA"/>
<stop offset="0.79" stop-color="#0C89CA"/>
</linearGradient>
<linearGradient id="paint4_linear_169_5119" x1="3.71532" y1="19.5393" x2="11.7707" y2="22.51" gradientUnits="userSpaceOnUse">
<stop offset="0.13" stop-color="#F1E813"/>
<stop offset="0.3" stop-color="#EAE616"/>
<stop offset="0.53" stop-color="#D8DF1F"/>
<stop offset="0.8" stop-color="#BAD52D"/>
<stop offset="0.98" stop-color="#A2CC39"/>
</linearGradient>
<linearGradient id="paint5_linear_169_5119" x1="1.01012" y1="12.2266" x2="4.30893" y2="3.75922" gradientUnits="userSpaceOnUse">
<stop offset="0.07" stop-color="#A2CC39"/>
<stop offset="0.26" stop-color="#81C45E"/>
<stop offset="0.92" stop-color="#0FA7DF"/>
</linearGradient>
<clipPath id="clip0_169_5119">
<rect width="24" height="24" fill="white"/>
</clipPath>
</defs>
</svg>
