<svg width="20" height="20" viewBox="0 0 20 20" fill="none" xmlns="http://www.w3.org/2000/svg">
<path d="M13.4374 5.0826C12.9999 5.0826 12.6356 5.38346 12.5321 5.78866C11.7794 5.33609 10.9077 5.08015 9.99979 5.08015C7.28765 5.08015 5.08089 7.28665 5.08089 9.99909C5.08089 12.7115 7.28765 14.918 9.99979 14.918C11.2103 14.918 12.3547 14.4625 13.237 13.6881C13.624 14.0338 14.1288 14.2506 14.6874 14.2506H15.617C17.8326 14.2506 19.6188 12.5089 19.6835 10.285C19.6939 9.92401 19.6841 9.55597 19.6545 9.19125C19.2688 4.44112 15.3878 0.632142 10.6272 0.331242C7.84552 0.15943 5.11629 1.18272 3.14939 3.149C1.1828 5.11586 0.155847 7.84146 0.331935 10.6268C0.629216 15.3294 4.38597 19.2055 9.07084 19.6434C9.38517 19.6727 9.69767 19.6874 10.0083 19.6874C11.1946 19.6874 12.3524 19.474 13.4609 19.0498C13.9443 18.8649 14.1863 18.3229 14.0013 17.8392C13.817 17.3564 13.2756 17.1144 12.7907 17.2987C11.6637 17.73 10.4704 17.8914 9.2451 17.7763C5.47 17.4238 2.44292 14.2991 2.20332 10.5084C2.0611 8.26016 2.88939 6.06103 4.47509 4.47499C6.06082 2.88895 8.25537 2.06193 10.5088 2.20262C14.3465 2.44523 17.4746 5.51507 17.7856 9.34327C17.8097 9.6396 17.8176 9.93837 17.8091 10.2307C17.7743 11.4335 16.8111 12.3755 15.617 12.3755H14.6874C14.5149 12.3755 14.3749 12.2355 14.3749 12.063V6.02014C14.3749 5.50225 13.9552 5.0826 13.4374 5.0826V5.0826ZM12.4998 11.7189C11.9433 12.5383 11.0082 13.043 9.99979 13.043C8.32128 13.043 6.95592 11.6776 6.95592 9.99909C6.95592 8.32059 8.32128 6.95519 9.99979 6.95519C11.0082 6.95519 11.9433 7.45988 12.4998 8.27931V11.7189Z" fill="#B4B3DB"/>
</svg>
