<svg width="40" height="40" viewBox="0 0 40 40" fill="none" xmlns="http://www.w3.org/2000/svg">
<g clip-path="url(#clip0_409_1250)">
<path d="M4.84726 11.294C1.21882 17.5789 1.80078 25.3028 6.33046 30.9716C6.43294 31.0998 6.50915 31.247 6.55474 31.4047C6.60034 31.5624 6.61442 31.7275 6.5962 31.8906C6.57798 32.0538 6.5278 32.2117 6.44853 32.3555C6.36926 32.4992 6.26246 32.626 6.13421 32.7284C6.00597 32.8309 5.8588 32.9071 5.7011 32.9527C5.54341 32.9983 5.37827 33.0124 5.21513 32.9942C4.88565 32.9574 4.58429 32.7912 4.37734 32.5322C1.86611 29.389 0.361007 25.5615 0.0585675 21.5497C-0.243872 17.5379 0.670404 13.5281 2.68201 10.0439C4.69363 6.55968 7.70909 3.763 11.3347 2.01901C14.9602 0.275027 19.0274 -0.335215 23.0052 0.267969C23.2401 0.303603 23.46 0.405468 23.6391 0.561624C23.8182 0.717779 23.9491 0.921756 24.0165 1.14965C24.0838 1.37754 24.0848 1.6199 24.0193 1.84832C23.9538 2.07675 23.8246 2.28178 23.6467 2.43938L18.6685 6.85156C18.5457 6.96044 18.4026 7.04406 18.2474 7.09764C18.0922 7.15121 17.928 7.1737 17.7642 7.16382C17.6003 7.15394 17.44 7.11188 17.2924 7.04005C17.1448 6.96821 17.0128 6.86801 16.9039 6.74516C16.795 6.6223 16.7114 6.47921 16.6578 6.32404C16.6043 6.16887 16.5818 6.00467 16.5916 5.84081C16.6015 5.67696 16.6436 5.51665 16.7154 5.36904C16.7873 5.22144 16.8875 5.08943 17.0103 4.98055L19.7661 2.53828C13.6467 2.60305 7.99 5.8507 4.84726 11.294ZM39.9298 18.3848C39.6033 14.4261 38.1038 10.6548 35.6228 7.55281C35.5203 7.42457 35.3936 7.31776 35.2499 7.2385C35.1061 7.15923 34.9482 7.10905 34.785 7.09083C34.6219 7.0726 34.4567 7.08669 34.299 7.13229C34.1413 7.17788 33.9942 7.25409 33.8659 7.35656C33.7377 7.45904 33.6309 7.58576 33.5516 7.72951C33.4724 7.87326 33.4222 8.03122 33.4039 8.19436C33.3857 8.3575 33.3998 8.52263 33.4454 8.68033C33.491 8.83802 33.5672 8.98519 33.6697 9.11344C38.1993 14.7821 38.7815 22.5059 35.1528 28.7909C32.0027 34.2472 26.2752 37.4583 20.0422 37.4583C19.9286 37.4583 19.8149 37.4572 19.7009 37.4551L22.4279 34.8066C22.6657 34.5756 22.802 34.2596 22.8068 33.9281C22.8116 33.5965 22.6845 33.2767 22.4535 33.0389C22.2224 32.8011 21.9064 32.6648 21.5749 32.66C21.2434 32.6552 20.9235 32.7823 20.6857 33.0133L16.0098 37.5547C15.8437 37.7161 15.7256 37.9205 15.6688 38.1451C15.612 38.3696 15.6188 38.6056 15.6883 38.8266C15.7578 39.0476 15.8874 39.2449 16.0625 39.3965C16.2377 39.5481 16.4515 39.6481 16.6802 39.6852C17.7948 39.867 18.9223 39.9586 20.0517 39.9591C27.168 39.9591 33.7137 36.2838 37.318 30.0408C39.3629 26.5151 40.2747 22.446 39.9298 18.3848ZM19.2437 26.8828C19.2437 26.5513 19.112 26.2334 18.8776 25.9989C18.6432 25.7645 18.3253 25.6328 17.9937 25.6328H11.7443C12.6592 24.6133 13.8018 23.7216 14.8537 22.9009C16.5875 21.5477 18.0849 20.3792 18.5137 18.8092C19.1522 16.4713 18.5715 14.3813 16.9205 13.0748C15.1866 11.7029 12.5149 11.4766 10.5678 12.5369C8.8446 13.4752 7.97132 15.2088 8.17187 17.2937C8.20361 17.6237 8.36515 17.9275 8.62094 18.1384C8.87673 18.3493 9.20582 18.45 9.53582 18.4182C9.86581 18.3865 10.1697 18.225 10.3806 17.9692C10.5915 17.7134 10.6921 17.3843 10.6604 17.0543C10.5559 15.969 10.9271 15.1878 11.7634 14.7324C12.8337 14.1494 14.4177 14.2825 15.3694 15.0354C16.2209 15.7094 16.4745 16.7865 16.102 18.1503C15.8921 18.9191 14.5823 19.9413 13.3156 20.9296C11.4744 22.3666 9.38734 23.9952 8.25109 26.337C8.15862 26.5275 8.11611 26.7385 8.12754 26.95C8.13897 27.1616 8.20398 27.3667 8.31645 27.5462C8.42892 27.7258 8.58517 27.8737 8.77052 27.9763C8.95587 28.0789 9.16425 28.1326 9.37609 28.1326H17.9941C18.3255 28.1325 18.6433 28.0008 18.8777 27.7664C19.112 27.5321 19.2437 27.2142 19.2437 26.8828ZM19.2853 22.4141L27.59 12.3223C27.7537 12.1233 27.9748 11.9798 28.2232 11.9113C28.4716 11.8429 28.735 11.8529 28.9775 11.9399C29.22 12.0269 29.4297 12.1867 29.5778 12.3974C29.726 12.6082 29.8055 12.8596 29.8053 13.1172V21.9587H30.6243C30.9558 21.9587 31.2738 22.0904 31.5082 22.3248C31.7426 22.5592 31.8743 22.8772 31.8743 23.2087C31.8743 23.5402 31.7426 23.8581 31.5082 24.0926C31.2738 24.327 30.9558 24.4587 30.6243 24.4587H29.8053V26.8828C29.8053 27.2143 29.6736 27.5323 29.4392 27.7667C29.2048 28.0011 28.8868 28.1328 28.5553 28.1328C28.2238 28.1328 27.9058 28.0011 27.6714 27.7667C27.437 27.5323 27.3053 27.2143 27.3053 26.8828V24.4587H20.2506C20.0136 24.4587 19.7815 24.3914 19.5813 24.2646C19.3811 24.1378 19.2211 23.9567 19.1199 23.7423C19.0187 23.528 18.9805 23.2894 19.0098 23.0542C19.0391 22.819 19.1347 22.597 19.2853 22.4141ZM22.898 21.9584H27.3053V16.603L22.898 21.9584Z" fill="#3460FE"/>
</g>
<defs>
<clipPath id="clip0_409_1250">
<rect width="40" height="40" fill="white"/>
</clipPath>
</defs>
</svg>
