<svg width="40" height="40" viewBox="0 0 40 40" fill="none" xmlns="http://www.w3.org/2000/svg">
<path d="M36.667 10H10.0003C6.31843 10 3.33366 12.9848 3.33366 16.6667V30C3.33366 33.6819 6.31843 36.6667 10.0003 36.6667H30.0003C33.6822 36.6667 36.667 33.6819 36.667 30V10Z" stroke="#3460FE" stroke-width="2.5" stroke-linejoin="round"/>
<path d="M36.667 10C36.667 6.3181 33.6822 3.33333 30.0003 3.33333H20.0003C16.3184 3.33333 13.3337 6.3181 13.3337 10V10H36.667V10Z" stroke="#3460FE" stroke-width="2.5" stroke-linejoin="round"/>
<path d="M3.33301 20L3.33301 26.6667L9.99967 26.6667C11.8406 26.6667 13.333 25.1743 13.333 23.3333V23.3333C13.333 21.4924 11.8406 20 9.99967 20L3.33301 20Z" stroke="#3460FE" stroke-width="2.5" stroke-linejoin="round"/>
</svg>
