<svg width="40" height="40" viewBox="0 0 40 40" fill="none" xmlns="http://www.w3.org/2000/svg">
<g clip-path="url(#clip0_409_1259)">
<path d="M39.4481 0.557499C38.7153 -0.176251 37.5262 -0.176251 36.7934 0.557499L0.562773 36.7881C-0.170664 37.5212 -0.170664 38.7094 0.562773 39.4425C0.929336 39.8094 1.40996 39.9928 1.89027 39.9928C2.37059 39.9928 2.85121 39.8094 3.21746 39.4425L39.4481 3.21187C40.1815 2.47875 40.1815 1.29062 39.4481 0.557499Z" fill="#3460FE"/>
<path d="M8.9175 0.0200043C4.00062 0.0200043 0 4.02094 0 8.93782C0 13.8547 4.00062 17.8553 8.9175 17.8553C13.8347 17.8553 17.835 13.8544 17.835 8.9375C17.835 4.02063 13.8344 0.0200043 8.9175 0.0200043ZM8.9175 14.1003C6.07062 14.1003 3.75469 11.7841 3.75469 8.9375C3.75469 6.09094 6.07094 3.77469 8.9175 3.77469C11.7644 3.77469 14.0803 6.09094 14.0803 8.9375C14.0803 11.7841 11.7644 14.1003 8.9175 14.1003Z" fill="#3460FE"/>
<path d="M31.0825 22.1559C26.1657 22.1559 22.165 26.1566 22.165 31.0734C22.165 35.9903 26.1657 39.9909 31.0825 39.9909C35.9994 39.9909 40 35.9906 40 31.0734C40 26.1563 35.9994 22.1559 31.0825 22.1559ZM31.0825 36.2359C28.2357 36.2359 25.9197 33.9197 25.9197 31.0731C25.9197 28.2266 28.236 25.9103 31.0825 25.9103C33.9291 25.9103 36.2454 28.2266 36.2454 31.0731C36.2454 33.9197 33.9294 36.2359 31.0825 36.2359Z" fill="#3460FE"/>
</g>
<defs>
<clipPath id="clip0_409_1259">
<rect width="40" height="40" fill="white"/>
</clipPath>
</defs>
</svg>
