<svg width="40" height="40" viewBox="0 0 40 40" fill="none" xmlns="http://www.w3.org/2000/svg">
<path d="M36.6667 20C36.6667 10.7952 29.2047 3.33333 20 3.33333" stroke="#3460FE" stroke-width="2.5" stroke-linecap="round"/>
<path d="M36.6668 20C36.6668 29.2047 29.2049 36.6667 20.0002 36.6667C10.7954 36.6667 3.3335 29.2047 3.3335 20C3.3335 10.7952 10.7954 3.33333 20.0002 3.33333" stroke="#3460FE" stroke-width="2.5" stroke-linecap="round" stroke-linejoin="round" stroke-dasharray="0.83 5"/>
<path d="M22.5 20C22.5 21.3807 21.3807 22.5 20 22.5C18.6193 22.5 17.5 21.3807 17.5 20C17.5 18.6193 18.6193 17.5 20 17.5C21.3807 17.5 22.5 18.6193 22.5 20Z" stroke="#3460FE" stroke-width="2.5"/>
<path d="M22.4998 20H26.6665M19.9998 10V17.5" stroke="#3460FE" stroke-width="2.5" stroke-linecap="round" stroke-linejoin="round"/>
</svg>
