<svg width="32" height="32" viewBox="0 0 32 32" fill="none" xmlns="http://www.w3.org/2000/svg">
<path d="M3.66797 2.66669C3.66797 2.1144 3.22025 1.66669 2.66797 1.66669C2.11568 1.66669 1.66797 2.1144 1.66797 2.66669H3.66797ZM29.3346 30.3334C29.8869 30.3334 30.3346 29.8856 30.3346 29.3334C30.3346 28.7811 29.8869 28.3334 29.3346 28.3334V30.3334ZM20.668 11C20.1157 11 19.668 11.4477 19.668 12C19.668 12.5523 20.1157 13 20.668 13V11ZM24.3698 12.7371L23.4754 13.1843L24.3698 12.7371ZM24.4402 15.1139C24.6872 15.6079 25.2879 15.8081 25.7818 15.5611C26.2758 15.3141 26.4761 14.7135 26.2291 14.2195L24.4402 15.1139ZM24.1709 13.2149L24.7192 12.3786L23.0466 11.2821L22.4983 12.1184L24.1709 13.2149ZM19.6872 18.2305L18.8509 17.6822L19.6872 18.2305ZM17.4315 18.1899L16.576 18.7078L17.4315 18.1899ZM14.8872 13.9868L14.0318 14.5046H14.0318L14.8872 13.9868ZM12.5752 14.0403L11.6967 13.5626L12.5752 14.0403ZM8.45611 19.5223C8.19229 20.0075 8.37174 20.6147 8.85694 20.8785C9.34213 21.1424 9.94934 20.9629 10.2132 20.4777L8.45611 19.5223ZM1.66797 2.66669V24H3.66797V2.66669H1.66797ZM8.0013 30.3334H29.3346V28.3334H8.0013V30.3334ZM1.66797 24C1.66797 27.4978 4.5035 30.3334 8.0013 30.3334V28.3334C5.60807 28.3334 3.66797 26.3933 3.66797 24H1.66797ZM20.668 13H23.1773V11H20.668V13ZM23.4754 13.1843L24.4402 15.1139L26.2291 14.2195L25.2643 12.2899L23.4754 13.1843ZM23.1773 13C23.3035 13 23.4189 13.0714 23.4754 13.1843L25.2643 12.2899C24.869 11.4994 24.0611 11 23.1773 11V13ZM22.4983 12.1184L18.8509 17.6822L20.5235 18.7787L24.1709 13.2149L22.4983 12.1184ZM18.287 17.6721L15.7427 13.4689L14.0318 14.5046L16.576 18.7078L18.287 17.6721ZM11.6967 13.5626L8.45611 19.5223L10.2132 20.4777L13.4538 14.518L11.6967 13.5626ZM15.7427 13.4689C14.81 11.928 12.5571 11.9802 11.6967 13.5626L13.4538 14.518C13.5767 14.2919 13.8985 14.2845 14.0318 14.5046L15.7427 13.4689ZM18.8509 17.6822C18.7164 17.8873 18.414 17.8819 18.287 17.6721L16.576 18.7078C17.465 20.1765 19.5823 20.2145 20.5235 18.7787L18.8509 17.6822Z" fill="#3460FE"/>
</svg>
