<svg width="96" height="23" viewBox="0 0 96 23" fill="none" xmlns="http://www.w3.org/2000/svg">
<path d="M11.672 21.3425C9.40778 21.3425 7.41946 20.9524 5.70703 20.1723C3.99459 19.3922 2.67222 18.2886 1.73989 16.8616C0.826595 15.4156 0.369946 13.7317 0.369946 11.8099V11.496C0.369946 9.57427 0.826595 7.89989 1.73989 6.47286C2.67222 5.02681 3.99459 3.91373 5.70703 3.13362C7.41946 2.33449 9.40778 1.93492 11.672 1.93492C13.765 1.93492 15.6391 2.2774 17.2945 2.96238C18.9689 3.64735 20.2722 4.5987 21.2045 5.81643C22.1559 7.03416 22.6316 8.40411 22.6316 9.92627V10.1546H18.2649V9.92627C18.2649 9.14616 17.9795 8.45167 17.4086 7.84281C16.8569 7.23395 16.0768 6.75827 15.0683 6.41578C14.0789 6.0733 12.9373 5.90205 11.6435 5.90205C9.37924 5.90205 7.6573 6.37773 6.47762 7.32908C5.31697 8.28043 4.73665 9.65038 4.73665 11.4389V11.867C4.73665 13.6746 5.31697 15.0445 6.47762 15.9769C7.63827 16.9092 9.36973 17.3754 11.672 17.3754C13.6698 17.3754 15.2681 17.0138 16.4668 16.2908C17.6655 15.5488 18.2649 14.5784 18.2649 13.3797V13.1799H22.6316V13.3797C22.6316 14.9018 22.1559 16.2718 21.2045 17.4895C20.2722 18.6882 18.9689 19.6301 17.2945 20.315C15.6391 21 13.765 21.3425 11.672 21.3425ZM34.5622 11.2391V14.9209H24.8013V11.2391H34.5622ZM41.8509 2.2774V21H37.5413V2.2774H41.8509ZM54.5751 11.2391V14.9209H44.8143V11.2391H54.5751ZM69.5413 2.2774C71.7484 2.2774 73.4894 2.81016 74.7642 3.87567C76.039 4.94119 76.6764 6.39676 76.6764 8.24238V8.55632C76.6764 10.421 76.039 11.8861 74.7642 12.9516C73.4894 14.0171 71.7484 14.5498 69.5413 14.5498H61.9495V21H57.6684V2.2774H69.5413ZM69.4271 10.7539C70.3595 10.7539 71.073 10.5732 71.5677 10.2117C72.0624 9.83113 72.3097 9.27935 72.3097 8.55632V8.24238C72.3097 7.53838 72.0624 7.00562 71.5677 6.64411C71.073 6.26357 70.3595 6.0733 69.4271 6.0733H61.9495V10.7539H69.4271Z" fill="#FEFEFE"/>
<path d="M91.4921 0.336647H95.8017V0.99308L83.2439 22.9408H78.9343V22.2843L91.4921 0.336647Z" fill="#3460FE"/>
</svg>
