<svg width="18" height="18" viewBox="0 0 18 18" fill="none" xmlns="http://www.w3.org/2000/svg">
<path d="M12.4445 2.44259L14.1981 0.688935L13.5092 0L11.5844 1.92483C10.7994 1.53652 9.93092 1.29853 8.9998 1.29853C8.06868 1.29853 7.20023 1.53652 6.41523 1.92483L4.4904 0L3.80147 0.688935L5.55512 2.44259C4.10628 3.50312 3.1543 5.20667 3.1543 7.14406V7.97912H14.8453V7.14406C14.8453 5.20667 13.8933 3.50312 12.4445 2.44259ZM6.49458 6.30896C6.03111 6.30896 5.65952 5.93318 5.65952 5.4739C5.65952 5.01463 6.03111 4.63884 6.49458 4.63884C6.95804 4.63884 7.32964 5.01463 7.32964 5.4739C7.32964 5.93318 6.95804 6.30896 6.49458 6.30896ZM11.505 6.30896C11.0415 6.30896 10.67 5.93318 10.67 5.4739C10.67 5.01463 11.0415 4.63884 11.505 4.63884C11.9685 4.63884 12.3401 5.01463 12.3401 5.4739C12.3401 5.93318 11.9685 6.30896 11.505 6.30896Z" fill="#6A698D"/>
<path d="M3.1543 12.1545C3.1543 15.382 5.77225 18 8.9998 18C12.2273 18 14.8453 15.382 14.8453 12.1545V8.81421H3.1543V12.1545Z" fill="#6A698D"/>
</svg>
