<svg width="16" height="16" viewBox="0 0 16 16" fill="none" xmlns="http://www.w3.org/2000/svg">
<g clip-path="url(#clip0_48_1538)">
<path d="M12.3846 8.96857C11.9444 6.75356 14.0469 5.45448 14.0469 5.45448C14.0469 5.45448 13.2277 4.26938 11.8511 3.96451C10.4751 3.65896 9.78643 4.04071 9.09911 4.32703C8.41112 4.61405 8.06782 4.61405 8.06782 4.61405C7.07498 4.61405 6.34921 3.56283 4.4576 4.04141C3.15441 4.37029 1.78253 5.87468 1.53467 7.67019C1.2868 9.46637 1.82168 11.7583 2.85297 13.5346C3.88426 15.3122 4.93481 15.9803 5.68044 15.9995C6.42611 16.0181 7.17041 15.4653 8.06782 15.3308C8.96593 15.1976 9.51864 15.6562 10.3996 15.9041C11.277 16.1513 11.5847 15.922 12.5953 15.0623C13.6088 14.2026 14.5261 11.737 14.5261 11.737C14.5261 11.737 12.8247 11.185 12.3846 8.96857Z" fill="#6A698D"/>
<path d="M10.4355 2.53154C11.4105 1.53803 11.0803 0 11.0803 0C11.0803 0 9.71115 0.240323 8.79381 1.19471C7.87718 2.14979 8.02892 3.65829 8.02892 3.65829C8.02892 3.65829 9.46051 3.52441 10.4355 2.53154Z" fill="#6A698D"/>
</g>
<defs>
<clipPath id="clip0_48_1538">
<rect width="16" height="16" fill="white"/>
</clipPath>
</defs>
</svg>
