<svg width="24" height="24" viewBox="0 0 24 24" fill="none" xmlns="http://www.w3.org/2000/svg">
<rect width="24" height="24" rx="12" fill="#F7931A"/>
<path d="M17.2881 10.292C17.527 8.69524 16.3113 7.83687 14.6489 7.26424L15.1881 5.10124L13.8715 4.77311L13.3465 6.87911C13.0004 6.79286 12.6449 6.71149 12.2916 6.63087L12.8204 4.51099L11.5045 4.18286L10.9649 6.34511C10.6784 6.27986 10.3971 6.21537 10.1241 6.14749L10.1256 6.14074L8.30989 5.68736L7.95965 7.09361C7.95965 7.09361 8.93652 7.31748 8.91589 7.33136C9.44914 7.46448 9.54551 7.81736 9.52939 8.09711L8.91514 10.5612C8.95189 10.5706 8.99952 10.5841 9.05202 10.6051C9.00815 10.5942 8.96127 10.5822 8.9129 10.5706L8.05189 14.0225C7.98664 14.1845 7.82127 14.4275 7.44852 14.3352C7.46165 14.3544 6.49152 14.0964 6.49152 14.0964L5.83789 15.6035L7.55127 16.0306C7.87002 16.1105 8.18239 16.1941 8.48989 16.2729L7.94502 18.4606L9.26014 18.7887L9.79977 16.6242C10.159 16.7217 10.5078 16.8117 10.849 16.8965L10.3113 19.0509L11.6279 19.379L12.1728 17.1954C14.4179 17.6202 16.1061 17.4489 16.8168 15.4182C17.3894 13.7832 16.7883 12.8401 15.607 12.2251C16.4673 12.0267 17.1153 11.4609 17.2881 10.292ZM14.2799 14.5104C13.873 16.1454 11.1201 15.2615 10.2276 15.0399L10.9506 12.1415C11.8431 12.3642 14.7051 12.8052 14.2799 14.5104ZM14.6871 10.2684C14.3159 11.7556 12.0246 11 11.2814 10.8147L11.9369 8.18599C12.6801 8.37124 15.0738 8.71699 14.6871 10.2684Z" fill="white"/>
</svg>
