<svg width="20" height="20" viewBox="0 0 20 20" fill="none" xmlns="http://www.w3.org/2000/svg">
<path d="M12.5 13.3333L12.3774 13.9462C12.6538 14.0015 12.933 13.8649 13.059 13.6128L12.5 13.3333ZM6.66667 7.5L6.38716 6.94098C6.13507 7.06703 5.99853 7.3462 6.0538 7.62257L6.66667 7.5ZM6.96168 7.35249L7.24119 7.91151L7.24119 7.91151L6.96168 7.35249ZM7.76379 5.2428L8.34408 5.01068V5.01068L7.76379 5.2428ZM7.08574 3.54768L6.50544 3.7798V3.7798L7.08574 3.54768ZM16.4523 12.9143L16.6844 12.334L16.4523 12.9143ZM14.7572 12.2362L14.9893 11.6559H14.9893L14.7572 12.2362ZM12.6475 13.0383L13.2065 13.3178L12.6475 13.0383ZM16.875 14.4617V15.8333H18.125V14.4617H16.875ZM4.16667 3.125H5.53828V1.875H4.16667V3.125ZM12.5 13.3333C12.6226 12.7205 12.6227 12.7205 12.6229 12.7205C12.623 12.7205 12.6231 12.7206 12.6232 12.7206C12.6234 12.7206 12.6236 12.7207 12.6237 12.7207C12.6239 12.7207 12.624 12.7208 12.624 12.7208C12.624 12.7208 12.6235 12.7207 12.6225 12.7205C12.6206 12.72 12.6167 12.7192 12.6109 12.7179C12.5995 12.7154 12.5806 12.7111 12.5549 12.7049C12.5036 12.6924 12.4253 12.6722 12.3248 12.6426C12.1235 12.5834 11.8347 12.4873 11.4962 12.3422C10.8163 12.0508 9.95326 11.5694 9.19194 10.8081L8.30806 11.6919C9.21341 12.5973 10.2253 13.1575 11.0038 13.4911C11.3945 13.6586 11.7307 13.7708 11.9721 13.8418C12.0929 13.8773 12.1904 13.9027 12.2595 13.9195C12.2941 13.9279 12.3216 13.9342 12.3415 13.9385C12.3514 13.9407 12.3594 13.9425 12.3654 13.9437C12.3684 13.9444 12.3709 13.9449 12.3729 13.9453C12.3739 13.9455 12.3748 13.9457 12.3756 13.9458C12.3759 13.9459 12.3763 13.946 12.3766 13.946C12.3767 13.9461 12.377 13.9461 12.377 13.9461C12.3772 13.9462 12.3774 13.9462 12.5 13.3333ZM9.19194 10.8081C8.43062 10.0467 7.94918 9.18368 7.6578 8.5038C7.51273 8.1653 7.41663 7.87654 7.35742 7.67521C7.32785 7.57468 7.3076 7.49637 7.29512 7.44505C7.28888 7.41941 7.28459 7.40054 7.28206 7.38906C7.28079 7.38332 7.27996 7.37943 7.27955 7.37747C7.27934 7.37648 7.27924 7.37598 7.27924 7.37597C7.27924 7.37597 7.27926 7.37609 7.27931 7.37633C7.27933 7.37645 7.27936 7.3766 7.2794 7.37678C7.27942 7.37688 7.27945 7.37704 7.27946 7.37708C7.27949 7.37725 7.27953 7.37743 6.66667 7.5C6.0538 7.62257 6.05384 7.62276 6.05388 7.62296C6.0539 7.62304 6.05394 7.62325 6.05397 7.62341C6.05403 7.62372 6.0541 7.62406 6.05418 7.62443C6.05433 7.62518 6.05451 7.62606 6.05471 7.62706C6.05512 7.62906 6.05564 7.63158 6.05628 7.63459C6.05754 7.64061 6.05926 7.64862 6.06145 7.65855C6.06583 7.6784 6.07212 7.70592 6.08053 7.74049C6.09735 7.80962 6.12267 7.90709 6.15821 8.02792C6.2292 8.2693 6.34144 8.60554 6.50887 8.9962C6.84249 9.77465 7.40271 10.7866 8.30806 11.6919L9.19194 10.8081ZM6.94617 8.05902L7.24119 7.91151L6.68217 6.79348L6.38716 6.94098L6.94617 8.05902ZM8.34408 5.01068L7.66604 3.31556L6.50544 3.7798L7.18349 5.47492L8.34408 5.01068ZM16.6844 12.334L14.9893 11.6559L14.5251 12.8165L16.2202 13.4946L16.6844 12.334ZM12.0885 12.7588L11.941 13.0538L13.059 13.6128L13.2065 13.3178L12.0885 12.7588ZM14.9893 11.6559C13.8827 11.2133 12.6215 11.6928 12.0885 12.7588L13.2065 13.3178C13.4488 12.8333 14.0221 12.6153 14.5251 12.8165L14.9893 11.6559ZM7.24119 7.91151C8.30723 7.37849 8.78673 6.1173 8.34408 5.01068L7.18349 5.47492C7.38469 5.97793 7.16674 6.55119 6.68217 6.79348L7.24119 7.91151ZM5.53828 3.125C5.96422 3.125 6.34725 3.38432 6.50544 3.7798L7.66604 3.31556C7.31802 2.44551 6.47535 1.875 5.53828 1.875V3.125ZM18.125 14.4617C18.125 13.5246 17.5545 12.682 16.6844 12.334L16.2202 13.4946C16.6157 13.6527 16.875 14.0358 16.875 14.4617H18.125ZM15.8333 16.875C8.81471 16.875 3.125 11.1853 3.125 4.16667H1.875C1.875 11.8756 8.12436 18.125 15.8333 18.125V16.875ZM15.8333 18.125C17.099 18.125 18.125 17.099 18.125 15.8333H16.875C16.875 16.4086 16.4086 16.875 15.8333 16.875V18.125ZM3.125 4.16667C3.125 3.59137 3.59137 3.125 4.16667 3.125V1.875C2.90101 1.875 1.875 2.90101 1.875 4.16667H3.125Z" fill="#6A698D"/>
</svg>
