<svg width="72" height="72" viewBox="0 0 72 72" fill="none" xmlns="http://www.w3.org/2000/svg">
<path fill-rule="evenodd" clip-rule="evenodd" d="M66 18H18C11.3726 18 6 23.3726 6 30V31.5L18 31.5C23.799 31.5 28.5 36.201 28.5 42C28.5 47.799 23.799 52.5 18 52.5H6V54C6 60.6274 11.3726 66 18 66H39C40.6569 66 42 64.6569 42 63V57C42 50.3726 47.3726 45 54 45H63C64.6569 45 66 43.6569 66 42V18ZM6 48V36H18C21.3137 36 24 38.6863 24 42C24 45.3137 21.3137 48 18 48H6Z" fill="#3460FE"/>
<path fill-rule="evenodd" clip-rule="evenodd" d="M57 51.75C58.2426 51.75 59.25 52.7574 59.25 54V57.75L63 57.75C64.2426 57.75 65.25 58.7574 65.25 60C65.25 61.2426 64.2426 62.25 63 62.25H59.25V66C59.25 67.2426 58.2426 68.25 57 68.25C55.7574 68.25 54.75 67.2426 54.75 66V62.25H51C49.7574 62.25 48.75 61.2426 48.75 60C48.75 58.7574 49.7574 57.75 51 57.75L54.75 57.75V54C54.75 52.7574 55.7574 51.75 57 51.75Z" fill="#00EBFF"/>
<path d="M35.9992 6H53.9992C59.0353 6 63.3468 9.10225 65.127 13.5H24.8715C26.6517 9.10225 30.9632 6 35.9992 6Z" fill="#00EBFF"/>
</svg>
