<svg width="14" height="14" viewBox="0 0 14 14" fill="none" xmlns="http://www.w3.org/2000/svg">
<path d="M6.99996 7.00002H6.24996C6.24996 7.32284 6.45653 7.60945 6.76279 7.71153L6.99996 7.00002ZM7.74996 4.08335C7.74996 3.66914 7.41417 3.33335 6.99996 3.33335C6.58575 3.33335 6.24996 3.66914 6.24996 4.08335H7.74996ZM8.51279 8.29487C8.90575 8.42585 9.33049 8.21348 9.46147 7.82052C9.59246 7.42757 9.38009 7.00283 8.98713 6.87184L8.51279 8.29487ZM7.74996 7.00002V4.08335H6.24996V7.00002H7.74996ZM6.76279 7.71153L8.51279 8.29487L8.98713 6.87184L7.23713 6.28851L6.76279 7.71153ZM12.0833 7.00002C12.0833 9.80747 9.80741 12.0834 6.99996 12.0834V13.5834C10.6358 13.5834 13.5833 10.6359 13.5833 7.00002H12.0833ZM6.99996 12.0834C4.19251 12.0834 1.91663 9.80747 1.91663 7.00002H0.416626C0.416626 10.6359 3.36408 13.5834 6.99996 13.5834V12.0834ZM1.91663 7.00002C1.91663 4.19257 4.19251 1.91669 6.99996 1.91669V0.416687C3.36408 0.416687 0.416626 3.36415 0.416626 7.00002H1.91663ZM6.99996 1.91669C9.80741 1.91669 12.0833 4.19257 12.0833 7.00002H13.5833C13.5833 3.36415 10.6358 0.416687 6.99996 0.416687V1.91669Z" fill="#6A698D"/>
</svg>
