<svg width="24" height="24" viewBox="0 0 24 24" fill="none" xmlns="http://www.w3.org/2000/svg">
<g clip-path="url(#clip0_48_819)">
<path d="M20.4905 3.51284C15.8111 -1.16655 8.19472 -1.16655 3.51533 3.51284C1.24862 5.78044 0 8.79467 0 12.0004C0 15.2061 1.24862 18.2203 3.51533 20.487C5.85549 22.8272 8.92921 23.9968 12.0029 23.9968C15.0766 23.9968 18.1503 22.8272 20.4904 20.487C25.1698 15.8077 25.1698 8.19312 20.4905 3.51284ZM19.1758 19.1724C15.2207 23.1275 8.78507 23.1275 4.82995 19.1724C2.91472 17.2571 1.85946 14.7097 1.85946 12.0004C1.85946 9.29113 2.91472 6.74364 4.82995 4.82746C8.78507 0.872343 15.2207 0.873281 19.1758 4.82746C23.13 8.78258 23.13 15.2182 19.1758 19.1724Z" fill="#6A698D"/>
<path d="M16.0092 14.5702L13.3771 11.9418L16.0092 9.31348C16.3718 8.9509 16.3718 8.36238 16.0102 7.99882C15.6466 7.63436 15.0581 7.6353 14.6946 7.99788L12.0607 10.6281L9.42673 7.99788C9.06322 7.6353 8.47469 7.63436 8.11117 7.99882C7.74859 8.36234 7.74859 8.95086 8.11211 9.31348L10.7442 11.9418L8.11211 14.5702C7.74859 14.9328 7.74859 15.5213 8.11117 15.8849C8.29249 16.0671 8.53141 16.1573 8.76945 16.1573C9.00748 16.1573 9.24547 16.0661 9.42678 15.8858L12.0607 13.2555L14.6946 15.8858C14.876 16.0671 15.1139 16.1573 15.352 16.1573C15.59 16.1573 15.8289 16.0661 16.0103 15.8849C16.3727 15.5213 16.3727 14.9328 16.0092 14.5702Z" fill="#6A698D"/>
</g>
<defs>
<clipPath id="clip0_48_819">
<rect width="24" height="24" fill="white"/>
</clipPath>
</defs>
</svg>
