<svg width="16" height="16" viewBox="0 0 16 16" fill="none" xmlns="http://www.w3.org/2000/svg">
<path d="M4.55993 11.11C4.57993 11.12 4.59993 11.12 4.60993 11.13C5.21092 11.3716 5.85222 11.4971 6.49993 11.5C7.82587 11.4995 9.09736 10.9726 10.0349 10.035C10.9725 9.09742 11.4995 7.82593 11.4999 6.49999C11.497 5.85228 11.3715 5.21098 11.1299 4.60999C11.1199 4.59999 11.1199 4.57999 11.1099 4.55999C10.7917 3.80435 10.2925 3.13855 9.65644 2.62121C9.02033 2.10388 8.26679 1.75087 7.46215 1.59329C6.65752 1.43571 5.82648 1.47838 5.04222 1.71755C4.25796 1.95672 3.54453 2.38505 2.96476 2.96482C2.38499 3.54459 1.95666 4.25802 1.71749 5.04228C1.47832 5.82654 1.43565 6.65758 1.59323 7.46221C1.75081 8.26685 2.10382 9.02039 2.62115 9.6565C3.13849 10.2926 3.80429 10.7918 4.55993 11.11Z" fill="#3460FE"/>
<path d="M6.49992 12.5C6.13754 12.5015 5.77587 12.468 5.41992 12.4C5.842 12.9923 6.38811 13.4854 7.02021 13.8452C7.65231 14.2049 8.35522 14.4225 9.08 14.4829C9.80478 14.5433 10.534 14.445 11.2169 14.1948C11.8998 13.9446 12.52 13.5486 13.0343 13.0344C13.5486 12.5201 13.9446 11.8999 14.1947 11.217C14.4449 10.5341 14.5432 9.80484 14.4828 9.08006C14.4224 8.35528 14.2048 7.65237 13.8451 7.02027C13.4854 6.38817 12.9922 5.84207 12.3999 5.41998C12.4679 5.77593 12.5014 6.13761 12.4999 6.49998C12.4987 8.0909 11.8661 9.6163 10.7412 10.7412C9.61624 11.8662 8.09084 12.4987 6.49992 12.5Z" fill="#3460FE"/>
</svg>
