<svg width="20" height="20" viewBox="0 0 20 20" fill="none" xmlns="http://www.w3.org/2000/svg">
<path fill-rule="evenodd" clip-rule="evenodd" d="M10.537 5.41675H6.66797V5.00008C6.66797 3.15913 8.16035 1.66675 10.0013 1.66675H15.0013C16.8423 1.66675 18.3346 3.15913 18.3346 5.00008V10.0001C18.3346 11.841 16.8423 13.3334 15.0013 13.3334H14.5846V9.46437C14.5846 7.22893 12.7725 5.41675 10.537 5.41675ZM10.0013 18.3334H5.0013C3.16035 18.3334 1.66797 16.841 1.66797 15.0001V10.0001C1.66797 8.15913 3.16035 6.66675 5.0013 6.66675H10.0013C11.8423 6.66675 13.3346 8.15913 13.3346 10.0001V15.0001C13.3346 16.841 11.8423 18.3334 10.0013 18.3334Z" fill="#3460FE"/>
</svg>
