<svg width="104" height="32" viewBox="0 0 104 32" fill="none" xmlns="http://www.w3.org/2000/svg">
<circle cx="88" cy="16" r="15" fill="url(#paint0_linear_517_3729)" stroke="#040026" stroke-width="2"/>
<path d="M88.0001 19.0151L82.5435 16.4219L88.0001 25.9556L93.4566 16.4219L88.0001 19.0151Z" fill="white"/>
<path d="M92.8593 14.4877L88.0001 6.04443L83.1313 14.4972L88.0001 12.1884L92.8593 14.4877Z" fill="white"/>
<path d="M83.5532 15.5923L88 17.6972L92.4516 15.5876L88 13.4827L83.5532 15.5923Z" fill="white"/>
<rect x="49" y="1" width="30" height="30" rx="15" fill="#26A17B" stroke="#040026" stroke-width="2"/>
<path d="M70.7974 12.213C70.1629 11.7594 69.484 11.2754 68.8201 10.7954C68.805 10.7842 68.7907 10.773 68.7724 10.7618C68.6946 10.6975 68.6066 10.6469 68.512 10.6122L68.504 10.6082C66.7276 10.1691 64.9517 9.72806 63.1763 9.28508L58.4243 8.10351L58.2997 8.06991C58.1567 8.02911 57.9916 7.98351 57.8153 8.00591C57.767 8.01336 57.7209 8.03139 57.6803 8.05871L57.6358 8.09631C57.5801 8.15383 57.5376 8.2229 57.5111 8.2987L57.5 8.3291V8.5011L57.5079 8.5275C58.5085 11.3954 59.5361 14.3049 60.5272 17.1201C61.2903 19.288 62.0836 21.5327 62.8571 23.7375C62.9047 23.8871 63.0405 23.9855 63.2097 23.9999H63.2462C63.3201 24.0018 63.3932 23.9836 63.4577 23.9473C63.5223 23.911 63.5759 23.8579 63.6131 23.7935L66.5195 19.4632C67.2271 18.4096 67.9354 17.3528 68.6438 16.2993L69.5133 15.0017C69.9898 14.2897 70.4822 13.5546 70.9705 12.8386L70.9959 12.8018V12.7562C71.0071 12.625 71.0102 12.3554 70.7974 12.2122V12.213ZM67.3923 13.7913C66.7093 14.1545 66.0129 14.5297 65.3117 14.9009L66.5378 13.5586C67.0476 12.9962 67.5797 12.4146 68.1006 11.845L68.1117 11.8338C68.1554 11.7738 68.211 11.7178 68.2698 11.6578C68.3095 11.617 68.3539 11.5754 68.3944 11.5266C68.666 11.7186 68.9408 11.913 69.2052 12.1042C69.3958 12.2426 69.5904 12.3818 69.7889 12.5202C68.9872 12.9386 68.1883 13.3623 67.3923 13.7913ZM65.6389 13.6114C65.114 14.1921 64.5708 14.7881 64.0316 15.3769C62.9851 14.0797 61.9356 12.7851 60.8829 11.493L59.4702 9.75706L59.467 9.75306C59.3606 9.62987 59.2574 9.49467 59.1549 9.36747C59.089 9.28108 59.0191 9.19868 58.9493 9.11228C59.3749 9.22428 59.8045 9.32987 60.2262 9.43067C60.597 9.52107 60.9822 9.61467 61.3602 9.71226L67.7488 11.2978C67.0405 12.0706 66.3282 12.8538 65.6389 13.6114ZM63.7925 20.9184C63.833 20.5248 63.8775 20.12 63.914 19.7224C63.9474 19.4032 63.98 19.0776 64.0133 18.7664C64.0641 18.2672 64.1197 17.7504 64.1642 17.2441L64.1745 17.1545C64.211 16.8313 64.2476 16.4985 64.2698 16.1641C64.3125 16.1398 64.3568 16.1184 64.4024 16.1001C64.4572 16.0745 64.512 16.0521 64.5668 16.0185C65.4144 15.5634 66.2633 15.1109 67.1135 14.6609C67.9616 14.2113 68.8312 13.7458 69.6936 13.285C68.9111 14.4427 68.1318 15.6027 67.3557 16.7649C66.699 17.7424 66.024 18.7512 65.3522 19.7448C65.0885 20.1424 64.813 20.5472 64.5525 20.9367C64.2587 21.3719 63.9577 21.8175 63.6647 22.2647C63.7012 21.8143 63.7449 21.3607 63.7925 20.9184ZM58.6785 9.99706C58.6308 9.86186 58.5784 9.72346 58.5347 9.59227C59.5258 10.8146 60.5232 12.0442 61.496 13.2362C61.9986 13.8545 62.5013 14.4697 63.004 15.0921C63.1033 15.2081 63.2025 15.3321 63.2978 15.4521C63.4225 15.6057 63.5472 15.7673 63.683 15.9209C63.6385 16.3065 63.602 16.6969 63.5615 17.0713C63.5361 17.3337 63.5106 17.5968 63.4813 17.8632V17.8664C63.4701 18.0344 63.4479 18.204 63.4296 18.3688L63.3455 19.1152L63.3415 19.1408C63.2756 19.8984 63.1946 20.6632 63.1176 21.4055C63.085 21.7127 63.0556 22.0279 63.0223 22.3431C63.004 22.2871 62.9826 22.2303 62.9635 22.1775C62.9076 22.0247 62.8538 21.8711 62.8023 21.7167L62.4092 20.6032L58.6777 9.99706" fill="white"/>
<rect x="25" y="1" width="30" height="30" rx="15" fill="#26A17B" stroke="#040026" stroke-width="2"/>
<path fill-rule="evenodd" clip-rule="evenodd" d="M41.4416 17.0373V17.0358C41.3591 17.0418 40.9338 17.0673 39.9851 17.0673C39.2276 17.0673 38.6943 17.0448 38.5068 17.0358V17.038C35.5908 16.9098 33.4143 16.402 33.4143 15.7945C33.4143 15.1878 35.5908 14.68 38.5068 14.5495V16.5325C38.6973 16.546 39.2433 16.5783 39.9978 16.5783C40.9031 16.5783 41.3568 16.5408 41.4416 16.5333V14.551C44.3516 14.6808 46.5228 15.1885 46.5228 15.7945C46.5228 16.402 44.3516 16.9083 41.4416 17.0373ZM41.4416 14.3448V12.5703H45.5021V9.86426H34.4463V12.5703H38.5068V14.344C35.2068 14.4955 32.7251 15.1495 32.7251 15.9325C32.7251 16.7155 35.2068 17.3688 38.5068 17.521V23.2075H41.4416V17.5195C44.7363 17.368 47.2121 16.7148 47.2121 15.9325C47.2121 15.1503 44.7363 14.497 41.4416 14.3448Z" fill="white"/>
<rect x="1" y="1" width="30" height="30" rx="15" fill="#F7931A" stroke="#040026" stroke-width="2"/>
<path d="M23.0514 13.7227C23.3699 11.5937 21.7489 10.4492 19.5324 9.68565L20.2514 6.80165L18.4959 6.36415L17.7959 9.17215C17.3344 9.05715 16.8604 8.94866 16.3894 8.84116L17.0944 6.01465L15.3399 5.57715L14.6204 8.46014C14.2384 8.37314 13.8634 8.28716 13.4994 8.19666L13.5014 8.18765L11.0804 7.58315L10.6134 9.45815C10.6134 9.45815 11.9159 9.75665 11.8884 9.77515C12.5994 9.95265 12.7279 10.4231 12.7064 10.7961L11.8874 14.0816C11.9364 14.0941 11.9999 14.1122 12.0699 14.1402C12.0114 14.1257 11.9489 14.1096 11.8844 14.0941L10.7364 18.6967C10.6494 18.9127 10.4289 19.2366 9.93193 19.1136C9.94943 19.1391 8.65593 18.7952 8.65593 18.7952L7.78442 20.8047L10.0689 21.3741C10.4939 21.4806 10.9104 21.5921 11.3204 21.6971L10.5939 24.6142L12.3474 25.0517L13.0669 22.1656C13.5459 22.2956 14.0109 22.4157 14.4659 22.5287L13.7489 25.4012L15.5044 25.8387L16.2309 22.9272C19.2244 23.4937 21.4754 23.2651 22.4229 20.5576C23.1864 18.3776 22.3849 17.1202 20.8099 16.3002C21.9569 16.0357 22.8209 15.2812 23.0514 13.7227ZM19.0404 19.3472C18.4979 21.5272 14.8274 20.3486 13.6374 20.0531L14.6014 16.1886C15.7914 16.4856 19.6074 17.0737 19.0404 19.3472ZM19.5834 13.6911C19.0884 15.6741 16.0334 14.6666 15.0424 14.4196L15.9164 10.9147C16.9074 11.1617 20.0989 11.6226 19.5834 13.6911Z" fill="white"/>
<defs>
<linearGradient id="paint0_linear_517_3729" x1="88" y1="0" x2="88" y2="32" gradientUnits="userSpaceOnUse">
<stop stop-color="#4A819F"/>
<stop offset="1" stop-color="#034681"/>
</linearGradient>
</defs>
</svg>
