<svg width="18" height="18" viewBox="0 0 18 18" fill="none" xmlns="http://www.w3.org/2000/svg">
<rect x="1.5" y="4.5" width="15" height="12" rx="3" stroke="#6CD176" stroke-width="1.5"/>
<path d="M5.25 4.5C5.25 4.91421 5.58579 5.25 6 5.25C6.41421 5.25 6.75 4.91421 6.75 4.5H5.25ZM11.25 4.5C11.25 4.91421 11.5858 5.25 12 5.25C12.4142 5.25 12.75 4.91421 12.75 4.5H11.25ZM6.75 4.5V3.75H5.25V4.5H6.75ZM8.25 2.25H9.75V0.75H8.25V2.25ZM11.25 3.75V4.5H12.75V3.75H11.25ZM9.75 2.25C10.5784 2.25 11.25 2.92157 11.25 3.75H12.75C12.75 2.09315 11.4069 0.75 9.75 0.75V2.25ZM6.75 3.75C6.75 2.92157 7.42157 2.25 8.25 2.25V0.75C6.59315 0.75 5.25 2.09315 5.25 3.75H6.75Z" fill="#6CD176"/>
<path d="M1.91152 7.62298C1.56522 7.39571 1.10025 7.49219 0.872979 7.83848C0.645705 8.18478 0.742191 8.64975 1.08848 8.87702L1.91152 7.62298ZM16.9115 8.87702C17.2578 8.64975 17.3543 8.18478 17.127 7.83848C16.8997 7.49219 16.4348 7.39571 16.0885 7.62298L16.9115 8.87702ZM1.5 8.25C1.08848 8.87702 1.08859 8.87709 1.08872 8.87717C1.08878 8.87722 1.08893 8.87731 1.08905 8.87739C1.08931 8.87757 1.08964 8.87778 1.09004 8.87804C1.09084 8.87856 1.09192 8.87927 1.09327 8.88015C1.09597 8.88191 1.09977 8.88439 1.10464 8.88756C1.11439 8.89389 1.12844 8.90298 1.14661 8.91466C1.18293 8.938 1.23572 8.97166 1.30346 9.01417C1.43889 9.09916 1.63429 9.21967 1.87746 9.36386C2.36312 9.65184 3.04269 10.0363 3.81782 10.4216C5.32899 11.1727 7.34364 12 9 12V10.5C7.72742 10.5 5.99208 9.82726 4.48548 9.07839C3.75173 8.71368 3.10547 8.34816 2.64253 8.07364C2.41139 7.93658 2.2268 7.82271 2.10081 7.74364C2.03783 7.70412 1.98956 7.67333 1.95749 7.65273C1.94146 7.64243 1.92949 7.63467 1.92176 7.62966C1.9179 7.62715 1.9151 7.62532 1.91338 7.6242C1.91252 7.62364 1.91194 7.62325 1.91162 7.62305C1.91147 7.62295 1.91138 7.62289 1.91136 7.62288C1.91135 7.62287 1.91139 7.6229 1.91139 7.6229C1.91144 7.62293 1.91152 7.62298 1.5 8.25ZM9 12C10.6564 12 12.671 11.1727 14.1822 10.4216C14.9573 10.0363 15.6369 9.65184 16.1225 9.36386C16.3657 9.21967 16.5611 9.09916 16.6965 9.01417C16.7643 8.97166 16.8171 8.938 16.8534 8.91466C16.8716 8.90298 16.8856 8.89389 16.8954 8.88756C16.9002 8.88439 16.904 8.88191 16.9067 8.88015C16.9081 8.87927 16.9092 8.87856 16.91 8.87804C16.9104 8.87778 16.9107 8.87757 16.9109 8.87739C16.9111 8.87731 16.9112 8.87722 16.9113 8.87717C16.9114 8.87709 16.9115 8.87702 16.5 8.25C16.0885 7.62298 16.0886 7.62293 16.0886 7.6229C16.0886 7.6229 16.0886 7.62287 16.0886 7.62288C16.0886 7.62289 16.0885 7.62295 16.0884 7.62305C16.0881 7.62325 16.0875 7.62364 16.0866 7.6242C16.0849 7.62532 16.0821 7.62715 16.0782 7.62966C16.0705 7.63467 16.0585 7.64243 16.0425 7.65273C16.0104 7.67333 15.9622 7.70412 15.8992 7.74364C15.7732 7.82271 15.5886 7.93658 15.3575 8.07364C14.8945 8.34816 14.2483 8.71368 13.5145 9.07839C12.0079 9.82726 10.2726 10.5 9 10.5V12Z" fill="#6CD176"/>
<path d="M9.75 11.25C9.75 11.6642 9.41421 12 9 12C8.58579 12 8.25 11.6642 8.25 11.25C8.25 10.8358 8.58579 10.5 9 10.5C9.41421 10.5 9.75 10.8358 9.75 11.25Z" fill="#28303F" stroke="#6CD176" stroke-width="1.5"/>
</svg>
