<svg width="18" height="18" viewBox="0 0 18 18" fill="none" xmlns="http://www.w3.org/2000/svg">
<path d="M2.15228 10.6102L1.74456 10.9977L2.15228 10.6102ZM2.15228 7.38982L1.74456 7.00231L2.15228 7.38982ZM15.8477 10.6102L16.2554 10.9977L15.8477 10.6102ZM15.8477 7.38982L16.2554 7.00231L15.8477 7.38982ZM15.44 10.2227C13.985 11.7535 11.61 13.6875 9 13.6875V14.8125C12.1133 14.8125 14.7767 12.5535 16.2554 10.9977L15.44 10.2227ZM9 13.6875C6.38999 13.6875 4.01496 11.7535 2.56 10.2227L1.74456 10.9977C3.22328 12.5535 5.88674 14.8125 9 14.8125V13.6875ZM2.56 7.77734C4.01496 6.24652 6.38999 4.3125 9 4.3125V3.1875C5.88674 3.1875 3.22328 5.44648 1.74456 7.00231L2.56 7.77734ZM9 4.3125C11.61 4.3125 13.985 6.24652 15.44 7.77734L16.2554 7.00231C14.7767 5.44648 12.1133 3.1875 9 3.1875V4.3125ZM2.56 10.2227C1.89667 9.52474 1.89667 8.47526 2.56 7.77734L1.74456 7.00231C0.668481 8.13449 0.668481 9.86551 1.74456 10.9977L2.56 10.2227ZM16.2554 10.9977C17.3315 9.86551 17.3315 8.13449 16.2554 7.00231L15.44 7.77734C16.1033 8.47526 16.1033 9.52474 15.44 10.2227L16.2554 10.9977ZM10.6875 9C10.6875 9.93198 9.93198 10.6875 9 10.6875V11.8125C10.5533 11.8125 11.8125 10.5533 11.8125 9H10.6875ZM9 10.6875C8.06802 10.6875 7.3125 9.93198 7.3125 9H6.1875C6.1875 10.5533 7.4467 11.8125 9 11.8125V10.6875ZM7.3125 9C7.3125 8.06802 8.06802 7.3125 9 7.3125V6.1875C7.4467 6.1875 6.1875 7.4467 6.1875 9H7.3125ZM9 7.3125C9.93198 7.3125 10.6875 8.06802 10.6875 9H11.8125C11.8125 7.4467 10.5533 6.1875 9 6.1875V7.3125Z" fill="#6A698D"/>
</svg>
