<svg width="12" height="12" viewBox="0 0 12 12" fill="none" xmlns="http://www.w3.org/2000/svg">
<path d="M2.18221 4.90904H9.81846C9.96619 4.90904 10.0941 4.8551 10.202 4.74713C10.3098 4.63919 10.364 4.51137 10.364 4.36363C10.364 4.2159 10.3099 4.08814 10.202 3.98005L6.38385 0.161911C6.27597 0.0540898 6.14817 0 6.00035 0C5.85253 0 5.72474 0.0540898 5.61677 0.161911L1.79863 3.98005C1.69066 4.08802 1.63672 4.2159 1.63672 4.36363C1.63672 4.51134 1.69066 4.63919 1.79863 4.74713C1.90672 4.8551 2.03451 4.90904 2.18221 4.90904Z" fill="#6A698D"/>
<path d="M9.81846 7.09106H2.18221C2.03439 7.09106 1.9066 7.14504 1.79863 7.25289C1.69066 7.36086 1.63672 7.48865 1.63672 7.63638C1.63672 7.78411 1.69066 7.91199 1.79863 8.01991L5.61677 11.838C5.72486 11.946 5.85265 12 6.00035 12C6.14805 12 6.27597 11.946 6.38385 11.838L10.202 8.01988C10.3098 7.91199 10.364 7.78411 10.364 7.63635C10.364 7.48865 10.3099 7.36086 10.202 7.25286C10.0941 7.14492 9.96619 7.09106 9.81846 7.09106Z" fill="#6A698D"/>
</svg>
