<svg width="20" height="24" viewBox="0 0 20 24" fill="none" xmlns="http://www.w3.org/2000/svg">
<path d="M12.8799 21.96C18.3999 16.44 18.3999 7.56 12.8799 2.04C12.3999 1.56 12.3999 0.84 12.8799 0.36C13.3599 -0.12 14.0799 -0.12 14.5599 0.36C21.0399 6.84 21.0399 17.28 14.5599 23.64C14.0799 24.12 13.3599 24.12 12.8799 23.64C12.3999 23.16 12.3999 22.44 12.8799 21.96Z" fill="#FEFEFE"/>
<path d="M9.52012 18.48C13.0001 14.88 13.0001 9.11998 9.52012 5.63998C9.04012 5.15998 9.04012 4.43998 9.52012 3.95998C10.0001 3.47998 10.7201 3.47998 11.2001 3.95998C15.7601 8.39998 15.7601 15.72 11.2001 20.16C10.7201 20.64 10.0001 20.64 9.52012 20.16C9.04012 19.68 9.04012 18.96 9.52012 18.48Z" fill="#FEFEFE"/>
<path d="M5.92004 15.12C7.60004 13.44 7.60004 10.8 5.92004 9.24001C5.44004 8.76001 5.44004 8.04001 5.92004 7.56001C6.40004 7.08001 7.24004 7.08001 7.72004 7.56001C10.48 10.08 10.48 14.28 7.72004 16.8C7.24004 17.28 6.40004 17.28 5.92004 16.8C5.44004 16.32 5.44004 15.6 5.92004 15.12Z" fill="#FEFEFE"/>
<path d="M0.520079 12.12C0.520079 13.3792 1.54087 14.4 2.80008 14.4C4.05929 14.4 5.08008 13.3792 5.08008 12.12C5.08008 10.8608 4.05929 9.84003 2.80008 9.84003C1.54087 9.84003 0.520079 10.8608 0.520079 12.12Z" fill="#FEFEFE"/>
</svg>
