<svg width="19" height="18" viewBox="0 0 19 18" fill="none" xmlns="http://www.w3.org/2000/svg">
<path fill-rule="evenodd" clip-rule="evenodd" d="M7.0625 5.0625C7.0625 3.71631 8.15381 2.625 9.5 2.625C10.8462 2.625 11.9375 3.71631 11.9375 5.0625V6H7.0625V5.0625ZM5.9375 6.05265V5.0625C5.9375 3.09499 7.53249 1.5 9.5 1.5C11.4675 1.5 13.0625 3.09499 13.0625 5.0625V6.05265C14.4505 6.31594 15.5 7.53541 15.5 9V13.5C15.5 15.1569 14.1569 16.5 12.5 16.5H6.5C4.84315 16.5 3.5 15.1569 3.5 13.5V9C3.5 7.53541 4.54952 6.31594 5.9375 6.05265ZM11 11.25C11 12.0784 10.3284 12.75 9.5 12.75C8.67157 12.75 8 12.0784 8 11.25C8 10.4216 8.67157 9.75 9.5 9.75C10.3284 9.75 11 10.4216 11 11.25Z" fill="#6A698D"/>
</svg>
