<svg width="18" height="18" viewBox="0 0 18 18" fill="none" xmlns="http://www.w3.org/2000/svg">
<path d="M9.9375 11.25C9.9375 11.7678 9.51777 12.1875 9 12.1875V13.3125C10.1391 13.3125 11.0625 12.3891 11.0625 11.25H9.9375ZM9 12.1875C8.48223 12.1875 8.0625 11.7678 8.0625 11.25H6.9375C6.9375 12.3891 7.86091 13.3125 9 13.3125V12.1875ZM8.0625 11.25C8.0625 10.7322 8.48223 10.3125 9 10.3125V9.1875C7.86091 9.1875 6.9375 10.1109 6.9375 11.25H8.0625ZM9 10.3125C9.51777 10.3125 9.9375 10.7322 9.9375 11.25H11.0625C11.0625 10.1109 10.1391 9.1875 9 9.1875V10.3125ZM6 6.5625H12V5.4375H6V6.5625ZM14.4375 9V13.5H15.5625V9H14.4375ZM12 15.9375H6V17.0625H12V15.9375ZM3.5625 13.5V9H2.4375V13.5H3.5625ZM6 15.9375C4.65381 15.9375 3.5625 14.8462 3.5625 13.5H2.4375C2.4375 15.4675 4.03249 17.0625 6 17.0625V15.9375ZM14.4375 13.5C14.4375 14.8462 13.3462 15.9375 12 15.9375V17.0625C13.9675 17.0625 15.5625 15.4675 15.5625 13.5H14.4375ZM12 6.5625C13.3462 6.5625 14.4375 7.65381 14.4375 9H15.5625C15.5625 7.03249 13.9675 5.4375 12 5.4375V6.5625ZM6 5.4375C4.03249 5.4375 2.4375 7.03249 2.4375 9H3.5625C3.5625 7.65381 4.65381 6.5625 6 6.5625V5.4375ZM6.5625 6V4.5H5.4375V6H6.5625ZM11.4375 4.5V6H12.5625V4.5H11.4375ZM9 2.0625C10.3462 2.0625 11.4375 3.15381 11.4375 4.5H12.5625C12.5625 2.53249 10.9675 0.9375 9 0.9375V2.0625ZM6.5625 4.5C6.5625 3.15381 7.65381 2.0625 9 2.0625V0.9375C7.03249 0.9375 5.4375 2.53249 5.4375 4.5H6.5625Z" fill="#6A698D"/>
</svg>
