<svg width="15" height="15" viewBox="0 0 15 15" fill="none" xmlns="http://www.w3.org/2000/svg">
<path d="M3.75 5.625L6.11325 7.2005C6.953 7.76033 8.047 7.76033 8.88675 7.2005L9.19323 6.99618M8.62668 2.5H3.75C2.36929 2.5 1.25 3.61929 1.25 5V11.25C1.25 12.6307 2.36929 13.75 3.75 13.75H11.25C12.6307 13.75 13.75 12.6307 13.75 11.25V7.62332M13.75 4.375C13.75 5.41053 12.9105 6.25 11.875 6.25C10.8395 6.25 10 5.41053 10 4.375C10 3.33947 10.8395 2.5 11.875 2.5C12.9105 2.5 13.75 3.33947 13.75 4.375Z" stroke="#FF1167" stroke-width="1.3" stroke-linecap="round"/>
</svg>
