<svg width="20" height="20" viewBox="0 0 20 20" fill="none" xmlns="http://www.w3.org/2000/svg">
<path d="M5.34701 6.14664C5.05981 5.95516 4.67176 6.03277 4.48029 6.31998C4.28882 6.60718 4.36643 6.99523 4.65364 7.1867L5.34701 6.14664ZM8.15133 8.76733L8.49801 8.2473L8.15133 8.76733ZM11.8493 8.76733L11.5026 8.2473L11.8493 8.76733ZM15.347 7.1867C15.6342 6.99523 15.7118 6.60718 15.5204 6.31998C15.3289 6.03277 14.9408 5.95516 14.6536 6.14664L15.347 7.1867ZM5.00033 3.125H15.0003V1.875H5.00033V3.125ZM17.7087 5.83333V14.1667H18.9587V5.83333H17.7087ZM15.0003 16.875H5.00033V18.125H15.0003V16.875ZM2.29199 14.1667V5.83333H1.04199V14.1667H2.29199ZM5.00033 16.875C3.50455 16.875 2.29199 15.6624 2.29199 14.1667H1.04199C1.04199 16.3528 2.8142 18.125 5.00033 18.125V16.875ZM17.7087 14.1667C17.7087 15.6624 16.4961 16.875 15.0003 16.875V18.125C17.1865 18.125 18.9587 16.3528 18.9587 14.1667H17.7087ZM15.0003 3.125C16.4961 3.125 17.7087 4.33756 17.7087 5.83333H18.9587C18.9587 3.64721 17.1865 1.875 15.0003 1.875V3.125ZM5.00033 1.875C2.8142 1.875 1.04199 3.64721 1.04199 5.83333H2.29199C2.29199 4.33756 3.50455 3.125 5.00033 3.125V1.875ZM4.65364 7.1867L7.80464 9.28736L8.49801 8.2473L5.34701 6.14664L4.65364 7.1867ZM12.196 9.28736L15.347 7.1867L14.6536 6.14664L11.5026 8.2473L12.196 9.28736ZM7.80464 9.28736C9.13424 10.1738 10.8664 10.1738 12.196 9.28736L11.5026 8.2473C10.5929 8.85379 9.40774 8.85379 8.49801 8.2473L7.80464 9.28736Z" fill="#6A698D"/>
</svg>
