<svg width="18" height="18" viewBox="0 0 18 18" fill="none" xmlns="http://www.w3.org/2000/svg">
<path d="M13.5 5.25H14.2C14.2 5.06435 14.1263 4.8863 13.995 4.75503C13.8637 4.62375 13.6857 4.55 13.5 4.55V5.25ZM4.5 5.25V4.55C4.31435 4.55 4.1363 4.62375 4.00503 4.75503C3.87375 4.8863 3.8 5.06435 3.8 5.25H4.5ZM4.5 2.25V2.95V2.25ZM13.5 2.25V1.55V2.25ZM12.8 5.25L12.8 14.25H14.2V5.25L12.8 5.25ZM12 15.05H6V16.45H12V15.05ZM5.2 14.25V5.25H3.8V14.25H5.2ZM4.5 5.95L13.5 5.95V4.55L4.5 4.55L4.5 5.95ZM4.5 2.95L13.5 2.95V1.55L4.5 1.55V2.95ZM2.2 5.25C2.2 3.97975 3.22975 2.95 4.5 2.95V1.55C2.45655 1.55 0.8 3.20655 0.8 5.25L2.2 5.25ZM4.5 7.55C3.22975 7.55 2.2 6.52026 2.2 5.25L0.8 5.25C0.8 7.29345 2.45655 8.95 4.5 8.95L4.5 7.55ZM15.8 5.25C15.8 6.52026 14.7703 7.55 13.5 7.55V8.95C15.5435 8.95 17.2 7.29345 17.2 5.25H15.8ZM17.2 5.25C17.2 3.20655 15.5435 1.55 13.5 1.55V2.95C14.7703 2.95 15.8 3.97975 15.8 5.25H17.2ZM12.8 14.25C12.8 14.6918 12.4418 15.05 12 15.05V16.45C13.215 16.45 14.2 15.465 14.2 14.25H12.8ZM6 15.05C5.55817 15.05 5.2 14.6918 5.2 14.25H3.8C3.8 15.465 4.78497 16.45 6 16.45V15.05Z" fill="#6A698D"/>
<path d="M10.995 11.745C11.2683 11.4716 11.2683 11.0284 10.995 10.755C10.7216 10.4816 10.2784 10.4816 10.005 10.755L10.995 11.745ZM9.53033 12.2197L10.0253 12.7146L10.0253 12.7146L9.53033 12.2197ZM8.46967 12.2197L8.96464 11.7247V11.7247L8.46967 12.2197ZM7.99497 10.755C7.72161 10.4816 7.27839 10.4816 7.00503 10.755C6.73166 11.0284 6.73166 11.4716 7.00503 11.745L7.99497 10.755ZM9.7 8.24999C9.7 7.86339 9.3866 7.54999 9 7.54999C8.6134 7.54999 8.3 7.86339 8.3 8.24999H9.7ZM8.3 12C8.3 12.3866 8.6134 12.7 9 12.7C9.3866 12.7 9.7 12.3866 9.7 12H8.3ZM10.005 10.755L9.03535 11.7247L10.0253 12.7146L10.995 11.745L10.005 10.755ZM8.96464 11.7247L7.99497 10.755L7.00503 11.745L7.9747 12.7146L8.96464 11.7247ZM9.03535 11.7247C9.01583 11.7442 8.98417 11.7442 8.96464 11.7247L7.97469 12.7146C8.54095 13.2809 9.45904 13.2809 10.0253 12.7146L9.03535 11.7247ZM8.3 8.24999V12H9.7V8.24999H8.3Z" fill="#6A698D"/>
</svg>
