<svg width="32" height="32" viewBox="0 0 32 32" fill="none" xmlns="http://www.w3.org/2000/svg">
<rect width="32" height="32" rx="16" fill="#F01010"/>
<path fill-rule="evenodd" clip-rule="evenodd" d="M15.7094 10.1391C15.6651 10.1465 15.6274 10.15 15.5825 10.15H14.4C14.2636 10.15 14.104 10.15 13.9369 10.1341C13.7784 10.1191 13.6 10.1407 13.6 10.3V10.3V10.3C13.6 10.4583 13.75 10.55 13.9082 10.55H13.9191C13.9397 10.55 13.9602 10.5514 13.9806 10.5545C14.1525 10.5809 14.2995 10.6191 14.4215 10.6565C14.6079 10.7137 14.7995 10.7887 14.9132 10.947V10.947C15.0179 11.0927 15.0251 11.2881 15.038 11.467C15.05 11.634 15.05 11.8323 15.05 12.05C15.05 12.55 15 13.1 15 13.8C15 14.45 14.95 15.15 14.9 15.9C14.85 17 14.75 19.7 14.45 20.5C14.4354 20.5584 14.4122 20.6083 14.3843 20.6509C14.2707 20.8242 14.0555 20.8953 13.8565 20.9531C13.7817 20.9748 13.7002 20.9922 13.6121 20.998C13.5708 21.0007 13.5294 21.0029 13.4885 21.0088L13.3827 21.0239C13.2641 21.0408 13.1355 21.0617 13.1295 21.1813V21.1813C13.1266 21.2407 13.1435 21.3317 13.1592 21.3891C13.1598 21.3913 13.1605 21.3936 13.1612 21.3958C13.1885 21.4844 13.2983 21.5008 13.3909 21.4967C13.6439 21.4856 13.897 21.45 14.15 21.45H16C16.2605 21.45 16.4933 21.4777 16.7191 21.4919C16.8668 21.5011 17.05 21.448 17.05 21.3V21.3V21.3C17.05 21.1195 16.8506 21.0438 16.6704 21.0325L16.15 21C16.0473 21 15.9579 20.9868 15.8748 20.9605C15.7155 20.91 15.5747 20.7995 15.5 20.65V20.65C15.35 20.3 15.35 19.75 15.35 19.4C15.35 18.7 15.35 17.95 15.4 17.25C15.4 16.55 15.45 15.9 15.45 15.4C15.45 14.9 15.5 14.4 15.55 13.9C15.55 13.4103 15.598 12.9206 15.5999 12.4309C15.6 12.4138 15.6138 12.4 15.6309 12.4V12.4C15.6426 12.4 15.6533 12.4066 15.6585 12.4171C15.8543 12.8114 16.0028 13.2057 16.2 13.6C16.4 14 16.55 14.45 16.75 14.85L18.3 18.15C18.45 18.45 18.6 18.75 18.8 19.2C19 19.65 19.2 20.05 19.4 20.45C19.5 20.65 19.6 20.9 19.65 21.05C19.65 21.05 19.65 21.05 19.65 21.05C19.65 21.05 19.6746 21.1238 19.7039 21.2149C19.7722 21.4276 20.0001 21.7498 20.1 21.55V21.55C20.25 21.2 20.4 20.85 20.55 20.5C21 19.5 21.45 18.6 21.95 17.65L23.45 14.65C23.55 14.4 23.7 14.1 23.85 13.8C23.9985 13.503 24.147 13.206 24.2955 12.9091C24.2985 12.903 24.3028 12.8914 24.305 12.885V12.885C24.3532 12.743 24.5531 12.795 24.5542 12.945L24.6 19.5C24.6 19.85 24.6 20.15 24.6 20.35V20.35C24.6 20.6608 24.2755 20.8579 23.9708 20.919C23.918 20.9296 23.8611 20.9398 23.8 20.95L23.5611 20.9739C23.3923 20.9908 23.25 21.0803 23.25 21.25V21.25V21.25C23.25 21.4064 23.4315 21.4513 23.5877 21.4435C23.8585 21.4299 24.1292 21.4 24.4 21.4H26.4C26.673 21.4 26.946 21.4304 27.219 21.4438C27.3668 21.4511 27.55 21.398 27.55 21.25V21.25V21.25C27.55 21.0917 27.4 21 27.2417 21H27C26.75 21 26.55 20.9 26.45 20.8V20.8C26.2053 20.5553 26.1837 20.1759 26.1589 19.8308C26.1536 19.7575 26.15 19.6805 26.15 19.6C26.1 18.75 26.05 17.85 26.05 17C26.05 16.05 26 15.2 25.95 14.35V12.15C25.95 11.75 25.95 11.45 26 11.25C26.05 11.05 26.15 10.85 26.3 10.75C26.4427 10.6549 26.7211 10.605 27.0492 10.5573C27.083 10.5524 27.1171 10.55 27.1512 10.55H27.1876C27.3556 10.55 27.5 10.468 27.5 10.3V10.3V10.3C27.5 10.1648 27.374 10.0993 27.2388 10.1007C27.0847 10.1024 26.9423 10.1077 26.8029 10.1253C26.7007 10.1382 26.5981 10.15 26.4951 10.15H25.4V10.15C25.006 10.15 24.6353 10.4617 24.5205 10.8386C24.4612 11.0334 24.3851 11.2371 24.3 11.45C24.05 12 23.75 12.65 23.4 13.4L21.8 16.65C21.4034 17.5424 21.0068 18.3856 20.5127 19.1796C20.5048 19.1923 20.4909 19.2 20.476 19.2V19.2C20.46 19.2 20.4453 19.1912 20.4378 19.1771C20.0419 18.4337 19.6464 17.6419 19.3 16.85L17.35 12.9C17.1 12.35 16.85 11.8 16.7 11.35C16.6496 11.1819 16.6048 11.0251 16.5695 10.8777C16.4728 10.4746 16.1181 10.0699 15.7094 10.1391V10.1391ZM6.2 18.9C6.2 19.5 6.2 19.95 6.15 20.25C6.1 20.85 5.7 21.05 5.15 21.1L5.00363 21.1209C4.87145 21.1398 4.7385 21.202 4.72676 21.335V21.335C4.7111 21.5122 4.90183 21.5927 5.07953 21.5834C5.71489 21.55 6.28836 21.55 6.89999 21.55C7.65185 21.55 8.31538 21.5942 9.05662 21.5995C9.1484 21.6001 9.22774 21.5773 9.26052 21.4915V21.4915C9.27971 21.4413 9.30106 21.372 9.29894 21.3183C9.29863 21.3105 9.29823 21.3027 9.29771 21.2951C9.29084 21.1944 9.19533 21.1439 9.095 21.1328L8.79999 21.1C8.43259 21.1 8.19173 21.0156 8.03868 20.9244C8.02689 20.9174 7.97528 20.9 7.96156 20.9V20.9C7.95882 20.9 7.94878 20.8992 7.94651 20.8977C7.79844 20.7969 7.6996 20.5977 7.64999 20.3C7.59999 20 7.59999 19.55 7.59999 18.95V17.9572C7.59999 17.5943 7.26988 17.3032 6.90699 17.2948V17.2948C6.51177 17.2858 6.2 17.5992 6.2 17.9945V18.9ZM4.65 10.3V10.3C4.65 10.4809 4.84893 10.5582 5.0292 10.5733L5.35 10.6C5.6 10.6 5.8 10.7 5.9 10.8C6 10.9 6.1 11.05 6.1 11.3C6.1 11.55 6.15 11.95 6.15 12.45V15.25C6.15 15.6366 6.46339 15.95 6.84999 15.95V15.95C7.23659 15.95 7.54999 15.6366 7.54999 15.25V11.15C7.54999 11.0988 7.54999 11.0509 7.55083 11.0062C7.55469 10.8007 7.64444 10.55 7.84999 10.55V10.55C7.99999 10.55 8.24999 10.55 8.54999 10.55C9.44999 10.55 10.15 10.8 10.6 11.3C11.05 11.8 11.3 12.5 11.3 13.35C11.3 14.1 11.15 14.75 10.75 15.25C10.4 15.7 9.89999 16.05 9.14999 16.2C8.44999 16.35 7.49999 16.45 6.2 16.4C5.05 16.4 3.85 16.3 2.5 16.15C4 16.45 5.1 16.65 5.8 16.75C6.94999 16.9 8.09999 16.85 9.14999 16.7C9.69999 16.65 10.2 16.5 10.65 16.3C11.05 16.1 11.5 15.85 11.95 15.55C12.2 15.35 12.45 15.05 12.65 14.65C12.8 14.25 12.9 13.85 12.95 13.3C12.95 12.7 12.8 12.2 12.55 11.75C12.3 11.3 12 10.95 11.6 10.7C11.2 10.45 10.7 10.25 10.15 10.15C9.59999 10.05 8.94999 10 8.24999 10C7.54999 10 6.89999 10 6.34999 10C5.90404 10 5.45809 10.0329 5.06544 10.072C4.88975 10.0895 4.65 10.1234 4.65 10.3V10.3Z" fill="white"/>
</svg>
