<svg width="18" height="18" viewBox="0 0 18 18" fill="none" xmlns="http://www.w3.org/2000/svg">
<ellipse cx="7.5" cy="13.125" rx="5.25" ry="2.625" stroke="#FFC75B" stroke-width="1.5" stroke-linejoin="round"/>
<circle cx="7.5" cy="5.25" r="3" stroke="#FFC75B" stroke-width="1.5" stroke-linejoin="round"/>
<path fill-rule="evenodd" clip-rule="evenodd" d="M11.2835 7.68717C11.042 8.06134 10.7464 8.39739 10.408 8.68429C10.6738 8.76759 10.9566 8.8125 11.25 8.8125C12.8033 8.8125 14.0625 7.5533 14.0625 6C14.0625 4.53316 12.9396 3.3286 11.5065 3.19904C11.7061 3.58826 11.8507 4.01038 11.93 4.45511C12.5233 4.71665 12.9375 5.30996 12.9375 6C12.9375 6.92078 12.2 7.66931 11.2835 7.68717Z" fill="#FEFEFE"/>
<path fill-rule="evenodd" clip-rule="evenodd" d="M14.2496 13.1672C14.2421 13.6279 14.1109 14.0704 13.8756 14.4831C14.1518 14.4071 14.4107 14.319 14.6483 14.22C15.0962 14.0334 15.4953 13.7969 15.7911 13.5055C16.0889 13.2122 16.3125 12.8298 16.3125 12.375C16.3125 11.9201 16.0889 11.5377 15.7911 11.2444C15.4953 10.953 15.0962 10.7165 14.6483 10.5299C13.8813 10.2103 12.8929 10.0045 11.812 9.95123C12.5637 10.333 13.1775 10.8127 13.6012 11.3582C13.8245 11.4206 14.0303 11.4912 14.2156 11.5684C14.5821 11.7211 14.8419 11.8886 15.0016 12.0458C15.1592 12.2012 15.1875 12.312 15.1875 12.375C15.1875 12.4379 15.1592 12.5488 15.0016 12.7041C14.8469 12.8564 14.5982 13.0184 14.2496 13.1672Z" fill="#FEFEFE"/>
</svg>
