<svg width="18" height="18" viewBox="0 0 18 18" fill="none" xmlns="http://www.w3.org/2000/svg">
<ellipse cx="7.5" cy="13.125" rx="5.25" ry="2.625" stroke="#6A698D" stroke-width="1.4" stroke-linejoin="round"/>
<circle cx="7.5" cy="5.25" r="3" stroke="#6A698D" stroke-width="1.4" stroke-linejoin="round"/>
<path fill-rule="evenodd" clip-rule="evenodd" d="M11.2836 7.68711C11.0421 8.06128 10.7466 8.39732 10.4081 8.68423C10.6739 8.76753 10.9568 8.81243 11.2501 8.81243C12.8034 8.81243 14.0626 7.55324 14.0626 5.99993C14.0626 4.5331 12.9397 3.32854 11.5066 3.19897C11.7062 3.5882 11.8508 4.01032 11.9301 4.45505C12.5234 4.71659 12.9376 5.30989 12.9376 5.99993C12.9376 6.92071 12.2001 7.66925 11.2836 7.68711Z" fill="#6A698D"/>
<path fill-rule="evenodd" clip-rule="evenodd" d="M14.2497 13.1673C14.2422 13.6279 14.1111 14.0705 13.8757 14.4832C14.152 14.4072 14.4108 14.3191 14.6484 14.2201C15.0963 14.0335 15.4954 13.797 15.7912 13.5056C16.089 13.2122 16.3126 12.8299 16.3126 12.375C16.3126 11.9202 16.089 11.5378 15.7912 11.2445C15.4954 10.9531 15.0963 10.7166 14.6484 10.53C13.8814 10.2104 12.893 10.0046 11.8121 9.95129C12.5638 10.3331 13.1776 10.8128 13.6014 11.3583C13.8246 11.4206 14.0304 11.4912 14.2157 11.5684C14.5822 11.7211 14.8421 11.8886 15.0017 12.0459C15.1594 12.2012 15.1876 12.3121 15.1876 12.375C15.1876 12.438 15.1594 12.5488 15.0017 12.7041C14.8471 12.8565 14.5983 13.0185 14.2497 13.1673Z" fill="#6A698D"/>
</svg>
