<svg width="18" height="18" viewBox="0 0 18 18" fill="none" xmlns="http://www.w3.org/2000/svg">
<path d="M16.995 12.6944C17.2683 12.9677 17.2683 13.4109 16.995 13.6843C16.7216 13.9577 16.2784 13.9577 16.005 13.6843L16.995 12.6944ZM15.5303 12.2197L16.0253 11.7247L16.0253 11.7247L15.5303 12.2197ZM14.4697 12.2197L14.9646 12.7146V12.7146L14.4697 12.2197ZM13.995 13.6843C13.7216 13.9577 13.2784 13.9577 13.005 13.6843C12.7317 13.4109 12.7317 12.9677 13.005 12.6944L13.995 13.6843ZM15.7 16.5C15.7 16.8866 15.3866 17.2 15 17.2C14.6134 17.2 14.3 16.8866 14.3 16.5H15.7ZM14.3 12.4393C14.3 12.0527 14.6134 11.7393 15 11.7393C15.3866 11.7393 15.7 12.0527 15.7 12.4393H14.3ZM16.005 13.6843L15.0354 12.7146L16.0253 11.7247L16.995 12.6944L16.005 13.6843ZM14.9646 12.7146L13.995 13.6843L13.005 12.6944L13.9747 11.7247L14.9646 12.7146ZM15.0354 12.7146C15.0158 12.6951 14.9842 12.6951 14.9646 12.7146L13.9747 11.7247C14.541 11.1584 15.459 11.1584 16.0253 11.7247L15.0354 12.7146ZM14.3 16.5V12.4393H15.7V16.5H14.3Z" fill="#6A698D"/>
<path d="M16.5 4.5V3.8C16.8866 3.8 17.2 4.1134 17.2 4.5H16.5ZM17.2 9.75C17.2 10.1366 16.8866 10.45 16.5 10.45C16.1134 10.45 15.8 10.1366 15.8 9.75H17.2ZM11.25 15.8C11.6366 15.8 11.95 16.1134 11.95 16.5C11.95 16.8866 11.6366 17.2 11.25 17.2V15.8ZM16.5 5.2H4.5V3.8H16.5V5.2ZM2.2 7.5V13.5H0.8V7.5H2.2ZM15.8 9.75V4.5H17.2V9.75H15.8ZM4.5 15.8H11.25V17.2H4.5V15.8ZM2.2 13.5C2.2 14.7703 3.22974 15.8 4.5 15.8V17.2C2.45655 17.2 0.8 15.5435 0.8 13.5H2.2ZM4.5 5.2C3.22974 5.2 2.2 6.22975 2.2 7.5H0.8C0.8 5.45655 2.45655 3.8 4.5 3.8V5.2Z" fill="#6A698D"/>
<path d="M16.5 3.8C16.8866 3.8 17.2 4.1134 17.2 4.5C17.2 4.8866 16.8866 5.2 16.5 5.2V3.8ZM13.5 2.2H9V0.8H13.5V2.2ZM6 3.8H16.5V5.2H6V3.8ZM9 2.2C7.72974 2.2 6.7 3.22975 6.7 4.5H5.3C5.3 2.45655 6.95655 0.8 9 0.8V2.2ZM13.5 0.8C15.5435 0.8 17.2 2.45655 17.2 4.5H15.8C15.8 3.22975 14.7703 2.2 13.5 2.2V0.8Z" fill="#6A698D"/>
<path d="M1.5 9L0.8 9C0.8 8.6134 1.1134 8.3 1.5 8.3L1.5 9ZM1.5 12L1.5 12.7C1.1134 12.7 0.8 12.3866 0.8 12L1.5 12ZM2.2 9L2.2 12L0.8 12L0.8 9L2.2 9ZM1.5 11.3L4.5 11.3L4.5 12.7L1.5 12.7L1.5 11.3ZM4.5 9.7L1.5 9.7L1.5 8.3L4.5 8.3L4.5 9.7ZM5.3 10.5C5.3 10.0582 4.94183 9.7 4.5 9.7L4.5 8.3C5.71503 8.3 6.7 9.28497 6.7 10.5L5.3 10.5ZM4.5 11.3C4.94183 11.3 5.3 10.9418 5.3 10.5L6.7 10.5C6.7 11.715 5.71503 12.7 4.5 12.7L4.5 11.3Z" fill="#6A698D"/>
</svg>
