<svg width="20" height="20" viewBox="0 0 20 20" fill="none" xmlns="http://www.w3.org/2000/svg">
<path d="M15.834 13.3334V18.3334" stroke="#FEFEFE" stroke-width="1.5" stroke-linecap="round" stroke-linejoin="round"/>
<path d="M18.334 11.6667V5H5.00065C3.1597 5 1.66732 6.49238 1.66732 8.33333V15C1.66732 16.841 3.1597 18.3333 5.00065 18.3333H11.6673" stroke="#FEFEFE" stroke-width="1.5" stroke-linecap="round" stroke-linejoin="round"/>
<path d="M18.334 4.99996C18.334 3.15901 16.8416 1.66663 15.0007 1.66663H10.0007C8.1597 1.66663 6.66732 3.15901 6.66732 4.99996V4.99996H18.334V4.99996Z" stroke="#FEFEFE" stroke-width="1.5" stroke-linejoin="round"/>
<path d="M1.66602 10L1.66602 13.3333L4.99935 13.3333C5.91982 13.3333 6.66602 12.5871 6.66602 11.6667V11.6667C6.66602 10.7462 5.91982 10 4.99935 10L1.66602 10Z" stroke="#FEFEFE" stroke-width="1.5" stroke-linejoin="round"/>
<path d="M18.334 15.8334L13.334 15.8334" stroke="#FEFEFE" stroke-width="1.5" stroke-linecap="round" stroke-linejoin="round"/>
</svg>
