<svg width="11" height="13" viewBox="0 0 11 13" fill="none" xmlns="http://www.w3.org/2000/svg">
<path d="M2.20008 12.8448C2.08215 12.8448 1.98191 12.8095 1.89936 12.7387C1.8286 12.6562 1.79322 12.5559 1.79322 12.438V10.1383H0.431118C0.313187 10.1383 0.212946 10.103 0.130394 10.0322C0.0596353 9.94964 0.024256 9.8494 0.024256 9.73147V9.3423C0.024256 9.22437 0.0596353 9.13002 0.130394 9.05926C0.212946 8.97671 0.313187 8.93543 0.431118 8.93543H1.79322V7.92712H0.431118C0.313187 7.92712 0.212946 7.89174 0.130394 7.82099C0.0596353 7.73843 0.024256 7.63819 0.024256 7.52026V6.95419C0.024256 6.83626 0.0596353 6.74192 0.130394 6.67116C0.212946 6.58861 0.313187 6.54733 0.431118 6.54733H1.79322V0.886641C1.79322 0.756917 1.8286 0.656676 1.89936 0.585917C1.97012 0.503365 2.07036 0.462089 2.20008 0.462089H6.67557C8.00819 0.462089 9.05188 0.786399 9.80664 1.43502C10.5732 2.07185 10.9565 3.0035 10.9565 4.22999C10.9565 5.43288 10.5732 6.35274 9.80664 6.98957C9.05188 7.61461 8.00819 7.92712 6.67557 7.92712H3.49143V8.93543H6.9586C7.07653 8.93543 7.17088 8.97671 7.24164 9.05926C7.32419 9.13002 7.36546 9.22437 7.36546 9.3423V9.73147C7.36546 9.8494 7.32419 9.94964 7.24164 10.0322C7.17088 10.103 7.07653 10.1383 6.9586 10.1383H3.49143V12.438C3.49143 12.5559 3.45015 12.6562 3.3676 12.7387C3.28505 12.8095 3.18481 12.8448 3.06688 12.8448H2.20008ZM6.58712 6.54733C7.4716 6.54733 8.13791 6.35274 8.58605 5.96357C9.03419 5.5744 9.25826 4.99654 9.25826 4.22999C9.25826 3.48702 9.03419 2.91506 8.58605 2.51409C8.13791 2.10133 7.4716 1.89495 6.58712 1.89495H3.47374V6.54733H6.58712Z" fill="#FEFEFE"/>
</svg>
