<svg width="14" height="14" viewBox="0 0 14 14" fill="none" xmlns="http://www.w3.org/2000/svg">
<path fill-rule="evenodd" clip-rule="evenodd" d="M11.4043 6.56238C11.4043 9.23751 9.23568 11.4061 6.56055 11.4061C3.88542 11.4061 1.7168 9.23751 1.7168 6.56238C1.7168 3.88725 3.88542 1.71863 6.56055 1.71863C9.23568 1.71863 11.4043 3.88725 11.4043 6.56238ZM6.56055 12.3436C9.75344 12.3436 12.3418 9.75527 12.3418 6.56238C12.3418 3.36948 9.75344 0.781128 6.56055 0.781128C3.36765 0.781128 0.779297 3.36948 0.779297 6.56238C0.779297 9.75527 3.36765 12.3436 6.56055 12.3436ZM13.3861 13.3884C12.9041 13.8704 12.1228 13.8704 11.6408 13.3884L10.4702 12.2179C11.1516 11.7459 11.7435 11.154 12.2155 10.4726L13.3861 11.6432C13.868 12.1251 13.868 12.9065 13.3861 13.3884Z" fill="#3460FE"/>
</svg>
