<svg width="16" height="16" viewBox="0 0 16 16" fill="none" xmlns="http://www.w3.org/2000/svg">
<path d="M14.5579 10.7904L13.961 10.4249V10.4249L14.5579 10.7904ZM13.842 11.9596L14.439 12.3251V12.3251L13.842 11.9596ZM1.44207 5.20956L0.845098 4.84401H0.845098L1.44207 5.20956ZM2.15798 4.04043L2.75495 4.40598H2.75495L2.15798 4.04043ZM4.11389 3.54629L3.77921 4.1611L4.11389 3.54629ZM1.96615 7.0537L1.63148 7.66851H1.63148L1.96615 7.0537ZM11.8861 12.4537L12.2208 11.8389L12.2208 11.8389L11.8861 12.4537ZM14.0338 8.94629L13.6992 9.5611H13.6992L14.0338 8.94629ZM2.15798 11.9596L2.75495 11.594L2.15798 11.9596ZM1.44207 10.7904L0.845097 11.156H0.845097L1.44207 10.7904ZM13.842 4.04044L14.439 3.67489V3.67489L13.842 4.04044ZM14.5579 5.20957L13.961 5.57512V5.57512L14.5579 5.20957ZM14.0338 7.05371L14.3685 7.66852L14.0338 7.05371ZM11.8861 3.5463L12.2208 4.16111L12.2208 4.16111L11.8861 3.5463ZM1.96615 8.9463L2.30083 9.56111H2.30083L1.96615 8.9463ZM4.11389 12.4537L3.77921 11.8389L3.77921 11.8389L4.11389 12.4537ZM11.81 3.58773L11.4753 2.97292L11.4753 2.97292L11.81 3.58773ZM4.19 3.58773L4.52468 2.97292L4.52468 2.97292L4.19 3.58773ZM11.81 12.4123L11.4753 13.0271H11.4753L11.81 12.4123ZM4.19 12.4123L4.52467 13.0271L4.52468 13.0271L4.19 12.4123ZM7.28409 1.95H8.71591V0.55H7.28409V1.95ZM8.71591 14.05H7.28409V15.45H8.71591V14.05ZM7.28409 14.05C6.84054 14.05 6.55226 13.7207 6.55226 13.4H5.15226C5.15226 14.5704 6.14609 15.45 7.28409 15.45V14.05ZM9.44773 13.4C9.44773 13.7207 9.15946 14.05 8.71591 14.05V15.45C9.85391 15.45 10.8477 14.5704 10.8477 13.4H9.44773ZM8.71591 1.95C9.15946 1.95 9.44773 2.27925 9.44773 2.6H10.8477C10.8477 1.42958 9.85391 0.55 8.71591 0.55V1.95ZM7.28409 0.55C6.14609 0.55 5.15226 1.42958 5.15226 2.6H6.55226C6.55226 2.27925 6.84054 1.95 7.28409 1.95V0.55ZM13.961 10.4249L13.2451 11.594L14.439 12.3251L15.1549 11.156L13.961 10.4249ZM2.03904 5.57511L2.75495 4.40598L1.56101 3.67488L0.845098 4.84401L2.03904 5.57511ZM2.75495 4.40598C2.94636 4.09339 3.40585 3.95786 3.77921 4.1611L4.44856 2.93148C3.45226 2.38914 2.16037 2.69608 1.56101 3.67488L2.75495 4.40598ZM2.30083 6.43889C1.94931 6.24753 1.86371 5.86143 2.03904 5.57511L0.845098 4.84401C0.22965 5.84908 0.613335 7.11427 1.63148 7.66851L2.30083 6.43889ZM13.2451 11.594C13.0536 11.9066 12.5941 12.0421 12.2208 11.8389L11.5514 13.0685C12.5477 13.6108 13.8396 13.3039 14.439 12.3251L13.2451 11.594ZM15.1549 11.156C15.7704 10.1509 15.3867 8.88571 14.3685 8.33148L13.6992 9.5611C14.0507 9.75246 14.1363 10.1386 13.961 10.4249L15.1549 11.156ZM2.75495 11.594L2.03904 10.4249L0.845097 11.156L1.56101 12.3251L2.75495 11.594ZM13.2451 4.40599L13.961 5.57512L15.1549 4.84402L14.439 3.67489L13.2451 4.40599ZM13.961 5.57512C14.1363 5.86144 14.0507 6.24754 13.6992 6.4389L14.3685 7.66852C15.3867 7.11428 15.7704 5.84909 15.1549 4.84402L13.961 5.57512ZM12.2208 4.16111C12.5941 3.95787 13.0536 4.0934 13.2451 4.40599L14.439 3.67489C13.8396 2.69609 12.5477 2.38915 11.5514 2.93149L12.2208 4.16111ZM2.03904 10.4249C1.86371 10.1386 1.94931 9.75247 2.30083 9.56111L1.63147 8.33149C0.613333 8.88573 0.22965 10.1509 0.845097 11.156L2.03904 10.4249ZM1.56101 12.3251C2.16037 13.3039 3.45226 13.6109 4.44856 13.0685L3.77921 11.8389C3.40585 12.0421 2.94636 11.9066 2.75495 11.594L1.56101 12.3251ZM12.1447 4.20254L12.2208 4.16111L11.5514 2.93149L11.4753 2.97292L12.1447 4.20254ZM3.77921 4.1611L3.85532 4.20254L4.52468 2.97292L4.44856 2.93148L3.77921 4.1611ZM12.2208 11.8389L12.1447 11.7975L11.4753 13.0271L11.5514 13.0685L12.2208 11.8389ZM3.85533 11.7975L3.77921 11.8389L4.44856 13.0685L4.52467 13.0271L3.85533 11.7975ZM1.63148 7.66851C1.89411 7.81147 1.89411 8.18853 1.63147 8.33149L2.30083 9.56111C3.53766 8.88784 3.53766 7.11216 2.30083 6.43889L1.63148 7.66851ZM4.52468 13.0271C4.8076 12.8731 5.15226 13.0779 5.15226 13.4H6.55226C6.55226 12.0157 5.07114 11.1356 3.85532 11.7975L4.52468 13.0271ZM10.8477 13.4C10.8477 13.0779 11.1924 12.8731 11.4753 13.0271L12.1447 11.7975C10.9289 11.1356 9.44773 12.0157 9.44773 13.4H10.8477ZM14.3685 8.33148C14.1059 8.18852 14.1059 7.81148 14.3685 7.66852L13.6992 6.4389C12.4623 7.11217 12.4624 8.88783 13.6992 9.5611L14.3685 8.33148ZM3.85532 4.20254C5.07115 4.86438 6.55226 3.98429 6.55226 2.6H5.15226C5.15226 2.92213 4.8076 3.12693 4.52468 2.97292L3.85532 4.20254ZM11.4753 2.97292C11.1924 3.12694 10.8477 2.92213 10.8477 2.6H9.44773C9.44773 3.98429 10.9289 4.86439 12.1447 4.20254L11.4753 2.97292ZM9.55001 8C9.55001 8.85604 8.85605 9.55 8.00001 9.55V10.95C9.62925 10.95 10.95 9.62924 10.95 8H9.55001ZM8.00001 9.55C7.14397 9.55 6.45001 8.85604 6.45001 8H5.05001C5.05001 9.62924 6.37077 10.95 8.00001 10.95V9.55ZM6.45001 8C6.45001 7.14396 7.14397 6.45 8.00001 6.45V5.05C6.37077 5.05 5.05001 6.37076 5.05001 8H6.45001ZM8.00001 6.45C8.85605 6.45 9.55001 7.14396 9.55001 8H10.95C10.95 6.37076 9.62925 5.05 8.00001 5.05V6.45Z" fill="#3460FE"/>
</svg>
