<svg width="72" height="72" viewBox="0 0 72 72" fill="none" xmlns="http://www.w3.org/2000/svg">
<path d="M45 27C45 39.4265 34.9265 49.5 22.5 49.5C13.5247 49.5 0 49.5 0 49.5C0 49.5 0 30.4511 0 27C0 14.5735 10.0735 4.5 22.5 4.5C34.9265 4.5 45 14.5735 45 27Z" fill="#00EBFF"/>
<path d="M27 45C27 57.4265 37.0735 67.5 49.5 67.5H72C72 67.5 72 48.4511 72 45C72 32.5735 61.9265 22.5 49.5 22.5C37.0735 22.5 27 32.5735 27 45Z" fill="#3460FE"/>
<path d="M27 45C27 46.3561 27.1201 47.6841 27.35 48.9742C37.4449 46.7561 45 37.761 45 27C45 25.6438 44.8799 24.3159 44.65 23.0258C34.5551 25.2438 27 34.2389 27 45Z" fill="#1C84FF"/>
</svg>
