<svg width="24" height="24" viewBox="0 0 24 24" fill="none" xmlns="http://www.w3.org/2000/svg">
<rect width="24" height="24" rx="12" fill="#26A17B"/>
<path fill-rule="evenodd" clip-rule="evenodd" d="M13.0803 12.7779V12.7768C13.0185 12.7813 12.6995 12.8004 11.988 12.8004C11.4198 12.8004 11.0199 12.7836 10.8793 12.7768V12.7785C8.69228 12.6823 7.05991 12.3015 7.05991 11.8459C7.05991 11.3908 8.69228 11.01 10.8793 10.9121V12.3994C11.0222 12.4095 11.4317 12.4337 11.9975 12.4337C12.6765 12.4337 13.0168 12.4056 13.0803 12.3999V10.9133C15.2628 11.0106 16.8913 11.3914 16.8913 11.8459C16.8913 12.3015 15.2628 12.6812 13.0803 12.7779ZM13.0803 10.7586V9.42769H16.1257V7.39819H7.83391V9.42769H10.8793V10.758C8.40428 10.8716 6.54297 11.3621 6.54297 11.9494C6.54297 12.5366 8.40428 13.0266 10.8793 13.1408V17.4056H13.0803V13.1396C15.5514 13.026 17.4082 12.5361 17.4082 11.9494C17.4082 11.3627 15.5514 10.8728 13.0803 10.7586Z" fill="white"/>
</svg>
