<svg width="40" height="13" viewBox="0 0 40 13" fill="none" xmlns="http://www.w3.org/2000/svg">
<g clip-path="url(#clip0_82_889)">
<path d="M26.0307 0.0200195C23.1951 0.0200195 20.6612 1.49209 20.6612 4.21184C20.6612 7.33089 25.1553 7.54632 25.1553 9.11325C25.1553 9.77301 24.4004 10.3636 23.1111 10.3636C21.2813 10.3636 19.9137 9.53837 19.9137 9.53837L19.3285 12.2829C19.3285 12.2829 20.904 12.98 22.9956 12.98C26.0957 12.98 28.5352 11.4356 28.5352 8.66937C28.5352 5.37353 24.0224 5.1645 24.0224 3.71014C24.0224 3.19331 24.6421 2.62702 25.9277 2.62702C27.3782 2.62702 28.5617 3.22719 28.5617 3.22719L29.1344 0.576429C29.1344 0.576429 27.8467 0.0200195 26.0307 0.0200195ZM0.088191 0.220077L0.0195312 0.620192C0.0195312 0.620192 1.21245 0.838864 2.28686 1.27507C3.67027 1.77526 3.76881 2.06645 4.0018 2.97086L6.54065 12.7737H9.94399L15.1871 0.220077H11.7916L8.42255 8.75533L7.0478 1.52045C6.92172 0.692423 6.2831 0.220077 5.50139 0.220077H0.088191ZM16.5525 0.220077L13.8888 12.7737H17.1267L19.7811 0.220077H16.5525ZM34.6116 0.220077C33.8308 0.220077 33.4171 0.638763 33.1136 1.37041L28.3698 12.7737H31.7653L32.4223 10.8731H36.559L36.9585 12.7737H39.9546L37.3408 0.220077H34.6116ZM35.0532 3.61167L36.0597 8.3224H33.3632L35.0532 3.61167Z" fill="#FEFEFE"/>
</g>
<defs>
<clipPath id="clip0_82_889">
<rect width="39.975" height="13" fill="white"/>
</clipPath>
</defs>
</svg>
