<svg width="18" height="18" viewBox="0 0 18 18" fill="none" xmlns="http://www.w3.org/2000/svg">
<g clip-path="url(#clip0_41_2254)">
<path d="M8.80741 14.092H9.88299C9.88299 14.092 10.2081 14.056 10.3735 13.8771C10.5265 13.7128 10.5209 13.4045 10.5209 13.4045C10.5209 13.4045 10.4995 11.9611 11.1701 11.7484C11.8305 11.5392 12.6788 13.1435 13.5778 13.7612C14.2573 14.2281 14.7737 14.1257 14.7737 14.1257L17.178 14.092C17.178 14.092 18.4359 14.0143 17.8396 13.0254C17.7912 12.9444 17.4919 12.2941 16.0518 10.9575C14.5442 9.55789 14.7467 9.78515 16.5626 7.3651C17.6686 5.89124 18.1107 4.99117 17.9723 4.60639C17.8407 4.23962 17.0273 4.33637 17.0273 4.33637L14.3226 4.35212C14.3226 4.35212 14.1223 4.32512 13.9727 4.414C13.8275 4.50176 13.7341 4.70428 13.7341 4.70428C13.7341 4.70428 13.3055 5.84511 12.7339 6.81493C11.529 8.86146 11.0463 8.96947 10.8494 8.84233C10.3915 8.54644 10.5063 7.65199 10.5063 7.01745C10.5063 5.03393 10.8067 4.20699 9.92011 3.99322C9.62534 3.92234 9.40933 3.87509 8.65664 3.86721C7.69132 3.85709 6.87339 3.87059 6.41098 4.09673C6.10271 4.24749 5.86531 4.58389 6.01045 4.60302C6.18934 4.62665 6.59437 4.71215 6.80926 5.00467C7.08715 5.38158 7.07703 6.22989 7.07703 6.22989C7.07703 6.22989 7.23679 8.56444 6.70462 8.85471C6.33897 9.05385 5.83831 8.64769 4.76385 6.79018C4.21369 5.83949 3.79741 4.78753 3.79741 4.78753C3.79741 4.78753 3.71753 4.59177 3.57464 4.48713C3.40138 4.36 3.15836 4.3195 3.15836 4.3195L0.58642 4.33525C0.58642 4.33525 0.200516 4.3465 0.0587555 4.51414C-0.0672539 4.66377 0.0486298 4.97205 0.0486298 4.97205C0.0486298 4.97205 2.06253 9.68277 4.34195 12.0578C6.43348 14.2349 8.80741 14.092 8.80741 14.092Z" fill="white"/>
</g>
<defs>
<clipPath id="clip0_41_2254">
<rect width="18" height="18" fill="white"/>
</clipPath>
</defs>
</svg>
