<svg width="32" height="32" viewBox="0 0 32 32" fill="none" xmlns="http://www.w3.org/2000/svg">
<rect width="32" height="32" rx="16" fill="#8B3FFD"/>
<path d="M18.79 9C15.01 9 12 12.05 12 15.79C12 19.57 15.05 22.58 18.79 22.58C22.53 22.58 25.58 19.53 25.58 15.79C25.625 12.05 22.53 9 18.79 9ZM18.79 18.325C17.415 18.325 16.255 17.165 16.255 15.79C16.255 14.415 17.415 13.255 18.79 13.255C20.165 13.255 21.325 14.415 21.325 15.79C21.325 17.165 20.21 18.325 18.79 18.325Z" fill="white"/>
<path d="M12 10.975V20.86H9.595L6.5 10.975H12Z" fill="white"/>
</svg>
