<svg width="24" height="24" viewBox="0 0 24 24" fill="none" xmlns="http://www.w3.org/2000/svg">
<path d="M4.46986 7.02652L3.8342 6.25456L3.8342 6.25456L4.46986 7.02652ZM9.46986 2.90935L8.83419 2.13738V2.13738L9.46986 2.90935ZM14.5301 2.90935L13.8945 3.68131V3.68131L14.5301 2.90935ZM19.5301 7.02652L18.8945 7.79849V7.79849L19.5301 7.02652ZM20 10.1503V17.9668H22V10.1503H20ZM17 21H7V23H17V21ZM4 17.9668V10.1503H2V17.9668H4ZM5.10553 7.79849L10.1055 3.68131L8.83419 2.13738L3.8342 6.25456L5.10553 7.79849ZM13.8945 3.68131L18.8945 7.79849L20.1658 6.25456L15.1658 2.13738L13.8945 3.68131ZM10.1055 3.68131C11.2087 2.7729 12.7913 2.7729 13.8945 3.68131L15.1658 2.13738C13.3241 0.620871 10.6759 0.620875 8.83419 2.13738L10.1055 3.68131ZM7 21C5.35091 21 4 19.6498 4 17.9668H2C2 20.7388 4.23081 23 7 23V21ZM20 17.9668C20 19.6498 18.6491 21 17 21V23C19.7692 23 22 20.7388 22 17.9668H20ZM22 10.1503C22 8.64226 21.328 7.21158 20.1658 6.25456L18.8945 7.79849C19.5927 8.37341 20 9.23649 20 10.1503H22ZM4 10.1503C4 9.23649 4.40732 8.37341 5.10553 7.79849L3.8342 6.25456C2.67197 7.21158 2 8.64226 2 10.1503H4Z" fill="#FEFEFE"/>
<path d="M7 14C6.44772 14 6 14.4477 6 15C6 15.5523 6.44772 16 7 16V14ZM14 16.5C14 17.0523 14.4477 17.5 15 17.5C15.5523 17.5 16 17.0523 16 16.5H14ZM17 16C17.5523 16 18 15.5523 18 15C18 14.4477 17.5523 14 17 14V16ZM15 18C15.5523 18 16 17.5523 16 17C16 16.4477 15.5523 16 15 16V18ZM7 16H8V14H7V16ZM10 14V13.5H8V14H10ZM11 13.5V16.5H13V13.5H11ZM16 16.5V16H14V16.5H16ZM16 16H17V14H16V16ZM16 16V14C14.8954 14 14 14.8954 14 16H16ZM11 16.5C11 16.8448 11.1211 17.1628 11.3396 17.4147C11.5406 17.6463 11.7854 17.7788 11.9842 17.8574C12.3671 18.009 12.8071 18.0485 13.1562 18.0601C13.5271 18.0724 13.9141 18.0548 14.2374 18.0368C14.5877 18.0173 14.8299 18 15 18V16C14.7559 16 14.416 16.0238 14.1261 16.0399C13.8093 16.0576 13.4981 16.0704 13.2225 16.0612C12.9251 16.0513 12.7705 16.0177 12.7203 15.9978C12.7025 15.9908 12.7713 16.0129 12.8503 16.104C12.9468 16.2152 13 16.3623 13 16.5H11ZM10.5 13C10.7761 13 11 13.2239 11 13.5H13C13 12.1193 11.8807 11 10.5 11V13ZM10 13.5C10 13.2239 10.2239 13 10.5 13V11C9.11929 11 8 12.1193 8 13.5H10ZM8 16C9.10457 16 10 15.1046 10 14H8V16Z" fill="#FEFEFE"/>
</svg>
