<svg width="24" height="24" viewBox="0 0 24 24" fill="none" xmlns="http://www.w3.org/2000/svg">
<path d="M7 6C7 6.55228 7.44772 7 8 7C8.55228 7 9 6.55228 9 6H7ZM15 6C15 6.55228 15.4477 7 16 7C16.5523 7 17 6.55228 17 6H15ZM2.55438 9.51522C2.09473 9.20904 1.47391 9.33346 1.16773 9.79311C0.86156 10.2528 0.985975 10.8736 1.44562 11.1797L2.55438 9.51522ZM22.5544 11.1797C23.014 10.8736 23.1384 10.2528 22.8323 9.79311C22.5261 9.33346 21.9053 9.20904 21.4456 9.51522L22.5544 11.1797ZM9.87807 13.9059C10.4276 13.9609 10.9177 13.56 10.9727 13.0105C11.0277 12.4609 10.6268 11.9708 10.0773 11.9158L9.87807 13.9059ZM13.9227 11.9158C13.3732 11.9708 12.9723 12.4609 13.0273 13.0105C13.0823 13.56 13.5724 13.9609 14.1219 13.9059L13.9227 11.9158ZM6 7H18V5H6V7ZM21 10V18H23V10H21ZM18 21H6V23H18V21ZM3 18V10H1V18H3ZM6 21C4.34315 21 3 19.6569 3 18H1C1 20.7614 3.23858 23 6 23V21ZM21 18C21 19.6569 19.6569 21 18 21V23C20.7614 23 23 20.7614 23 18H21ZM18 7C19.6569 7 21 8.34315 21 10H23C23 7.23858 20.7614 5 18 5V7ZM6 5C3.23858 5 1 7.23858 1 10H3C3 8.34315 4.34315 7 6 7V5ZM9 6V5H7V6H9ZM11 3H13V1H11V3ZM15 5V6H17V5H15ZM13 3C14.1046 3 15 3.89543 15 5H17C17 2.79086 15.2091 1 13 1V3ZM9 5C9 3.89543 9.89543 3 11 3V1C8.79086 1 7 2.79086 7 5H9ZM2 10.3475C1.44562 11.1797 1.44588 11.1799 1.44615 11.1801C1.44626 11.1802 1.44655 11.1804 1.44676 11.1805C1.44719 11.1808 1.44766 11.1811 1.44819 11.1815C1.44923 11.1821 1.45047 11.183 1.45191 11.1839C1.45477 11.1858 1.4584 11.1882 1.46279 11.191C1.47158 11.1968 1.48341 11.2044 1.49825 11.2139C1.52793 11.2328 1.56966 11.259 1.62308 11.2916C1.72991 11.3567 1.88365 11.4473 2.08161 11.556C2.47735 11.7735 3.05093 12.0642 3.78065 12.3693C5.23867 12.9791 7.33011 13.6508 9.87807 13.9059L10.0773 11.9158C7.7656 11.6844 5.8682 11.0745 4.5523 10.5242C3.89506 10.2493 3.38539 9.99038 3.04464 9.80317C2.87435 9.70961 2.74653 9.63413 2.66386 9.58375C2.62253 9.55856 2.59252 9.53967 2.57415 9.52795C2.56497 9.52209 2.5587 9.51803 2.55539 9.51587C2.55374 9.51479 2.55282 9.51418 2.55265 9.51407C2.55256 9.51401 2.55267 9.51408 2.55295 9.51427C2.5531 9.51437 2.55329 9.51449 2.55353 9.51465C2.55364 9.51473 2.55386 9.51487 2.55392 9.51491C2.55414 9.51506 2.55438 9.51522 2 10.3475ZM14.1219 13.9059C16.6699 13.6508 18.7613 12.9791 20.2194 12.3693C20.9491 12.0642 21.5226 11.7735 21.9184 11.556C22.1163 11.4473 22.2701 11.3567 22.3769 11.2916C22.4303 11.259 22.4721 11.2328 22.5017 11.2139C22.5166 11.2044 22.5284 11.1968 22.5372 11.191C22.5416 11.1882 22.5452 11.1858 22.5481 11.1839C22.5495 11.183 22.5508 11.1821 22.5518 11.1815C22.5523 11.1811 22.5528 11.1808 22.5532 11.1805C22.5535 11.1804 22.5537 11.1802 22.5538 11.1801C22.5541 11.1799 22.5544 11.1797 22 10.3475C21.4456 9.51522 21.4459 9.51506 21.4461 9.51491C21.4461 9.51487 21.4464 9.51473 21.4465 9.51465C21.4467 9.51449 21.4469 9.51437 21.447 9.51427C21.4473 9.51408 21.4474 9.51401 21.4473 9.51407C21.4472 9.51418 21.4463 9.51479 21.4446 9.51587C21.4413 9.51803 21.435 9.52209 21.4258 9.52795C21.4075 9.53967 21.3775 9.55856 21.3361 9.58375C21.2535 9.63413 21.1257 9.70961 20.9554 9.80317C20.6146 9.99038 20.1049 10.2493 19.4477 10.5242C18.1318 11.0745 16.2344 11.6844 13.9227 11.9158L14.1219 13.9059Z" fill="#3460FE"/>
<path d="M14 12.16V13.16C14 13.17 14 13.17 14 13.18C14 14.27 13.99 15.16 12 15.16C10.02 15.16 10 14.28 10 13.19V12.16C10 11.16 10 11.16 11 11.16H13C14 11.16 14 11.16 14 12.16Z" stroke="#FEFEFE" stroke-width="2" stroke-miterlimit="10" stroke-linecap="round" stroke-linejoin="round"/>
</svg>
