<svg width="24" height="24" viewBox="0 0 24 24" fill="none" xmlns="http://www.w3.org/2000/svg">
<path d="M18 7H19C19 6.73478 18.8946 6.48043 18.7071 6.29289C18.5196 6.10536 18.2652 6 18 6V7ZM6 7V6C5.73478 6 5.48043 6.10536 5.29289 6.29289C5.10536 6.48043 5 6.73478 5 7H6ZM6 3V4V3ZM18 3V2V3ZM17 7L17 19H19V7H17ZM16 20H8V22H16V20ZM7 19V7H5V19H7ZM6 8L18 8V6L6 6V8ZM6 4L18 4V2L6 2V4ZM3 7C3 5.34315 4.34315 4 6 4V2C3.23858 2 1 4.23858 1 7H3ZM6 10C4.34315 10 3 8.65685 3 7H1C1 9.76142 3.23858 12 6 12V10ZM21 7C21 8.65686 19.6569 10 18 10V12C20.7614 12 23 9.76142 23 7H21ZM23 7C23 4.23858 20.7614 2 18 2V4C19.6569 4 21 5.34315 21 7H23ZM17 19C17 19.5523 16.5523 20 16 20V22C17.6569 22 19 20.6569 19 19H17ZM8 20C7.44772 20 7 19.5523 7 19H5C5 20.6569 6.34315 22 8 22V20Z" fill="#3460FE"/>
<path d="M14.7071 15.7071C15.0976 15.3166 15.0976 14.6834 14.7071 14.2929C14.3166 13.9024 13.6834 13.9024 13.2929 14.2929L14.7071 15.7071ZM12.7071 16.2929L13.4142 17L12.7071 16.2929ZM11.2929 16.2929L12 15.5858V15.5858L11.2929 16.2929ZM10.7071 14.2929C10.3166 13.9024 9.68342 13.9024 9.29289 14.2929C8.90237 14.6834 8.90237 15.3166 9.29289 15.7071L10.7071 14.2929ZM13 11C13 10.4477 12.5523 10 12 10C11.4477 10 11 10.4477 11 11H13ZM11 16C11 16.5523 11.4477 17 12 17C12.5523 17 13 16.5523 13 16H11ZM13.2929 14.2929L12 15.5858L13.4142 17L14.7071 15.7071L13.2929 14.2929ZM12 15.5858L10.7071 14.2929L9.29289 15.7071L10.5858 17L12 15.5858ZM12 15.5858L12 15.5858L10.5858 17C11.3668 17.7811 12.6332 17.7811 13.4142 17L12 15.5858ZM11 11V16H13V11H11Z" fill="#FEFEFE"/>
</svg>
