<svg width="24" height="24" viewBox="0 0 24 24" fill="none" xmlns="http://www.w3.org/2000/svg">
<path d="M5 3H15V1H5V3ZM20 21H5V23H20V21ZM3 19V5H1V19H3ZM18 9H20V7H18V9ZM21 10V20H23V10H21ZM19 20V8H17V20H19ZM20 21C19.4477 21 19 20.5523 19 20H17C17 21.6569 18.3431 23 20 23V21ZM21 20C21 20.5523 20.5523 21 20 21V23C21.6569 23 23 21.6569 23 20H21ZM17 5V8H19V5H17ZM5 21C3.89543 21 3 20.1046 3 19H1C1 21.2091 2.79086 23 5 23V21ZM15 3C16.1046 3 17 3.89543 17 5H19C19 2.79086 17.2091 1 15 1V3ZM20 9C20.5523 9 21 9.44771 21 10H23C23 8.34315 21.6569 7 20 7V9ZM5 1C2.79086 1 1 2.79086 1 5H3C3 3.89543 3.89543 3 5 3V1Z" fill="#3460FE"/>
<path d="M6 6C5.44772 6 5 6.44772 5 7C5 7.55228 5.44772 8 6 8V6ZM14 8C14.5523 8 15 7.55228 15 7C15 6.44772 14.5523 6 14 6V8ZM6 11C5.44772 11 5 11.4477 5 12C5 12.5523 5.44772 13 6 13V11ZM14 13C14.5523 13 15 12.5523 15 12C15 11.4477 14.5523 11 14 11V13ZM6 16C5.44772 16 5 16.4477 5 17C5 17.5523 5.44772 18 6 18V16ZM10 18C10.5523 18 11 17.5523 11 17C11 16.4477 10.5523 16 10 16V18ZM6 8H14V6H6V8ZM6 13H14V11H6V13ZM6 18H10V16H6V18Z" fill="#FEFEFE"/>
</svg>
