<svg width="24" height="24" viewBox="0 0 24 24" fill="none" xmlns="http://www.w3.org/2000/svg">
<path d="M22 6V5C22.5523 5 23 5.44772 23 6H22ZM22 7H6V5H22V7ZM3 10V18H1V10H3ZM6 21H18V23H6V21ZM21 18V6H23V18H21ZM18 21C19.6569 21 21 19.6569 21 18H23C23 20.7614 20.7614 23 18 23V21ZM3 18C3 19.6569 4.34315 21 6 21V23C3.23858 23 1 20.7614 1 18H3ZM6 7C4.34315 7 3 8.34315 3 10H1C1 7.23858 3.23858 5 6 5V7Z" fill="#3460FE"/>
<path d="M22 5C22.5523 5 23 5.44772 23 6C23 6.55228 22.5523 7 22 7V5ZM18 3H12V1H18V3ZM8 5H22V7H8V5ZM12 3C10.3431 3 9 4.34315 9 6H7C7 3.23858 9.23858 1 12 1V3ZM18 1C20.7614 1 23 3.23858 23 6H21C21 4.34315 19.6569 3 18 3V1Z" fill="#3460FE"/>
<path d="M2 12L1 12C1 11.4477 1.44772 11 2 11L2 12ZM2 16L2 17C1.44772 17 1 16.5523 1 16L2 16ZM3 12L3 16L1 16L1 12L3 12ZM2 15L6 15L6 17L2 17L2 15ZM6 13L2 13L2 11L6 11L6 13ZM7 14C7 13.4477 6.55228 13 6 13L6 11C7.65685 11 9 12.3431 9 14L7 14ZM6 15C6.55228 15 7 14.5523 7 14L9 14C9 15.6569 7.65685 17 6 17L6 15Z" fill="#FEFEFE"/>
</svg>
