<svg width="24" height="24" viewBox="0 0 24 24" fill="none" xmlns="http://www.w3.org/2000/svg">
<path d="M22 14C22 13.4477 21.5523 13 21 13C20.4477 13 20 13.4477 20 14H22ZM12 21C11.4477 21 11 21.4477 11 22C11 22.5523 11.4477 23 12 23V21ZM20 13V15H22V13H20ZM16 15V13H14V15H16ZM18 17C16.8954 17 16 16.1046 16 15H14C14 17.2091 15.7909 19 18 19V17ZM20 15C20 16.1046 19.1046 17 18 17V19C20.2091 19 22 17.2091 22 15H20ZM18 11C19.1046 11 20 11.8954 20 13H22C22 10.7909 20.2091 9 18 9V11ZM18 9C15.7909 9 14 10.7909 14 13H16C16 11.8954 16.8954 11 18 11V9ZM8 13V15H10V13H8ZM4 15V13H2V15H4ZM6 17C4.89543 17 4 16.1046 4 15H2C2 17.2091 3.79086 19 6 19V17ZM8 15C8 16.1046 7.10457 17 6 17V19C8.20914 19 10 17.2091 10 15H8ZM6 11C7.10457 11 8 11.8954 8 13H10C10 10.7909 8.20914 9 6 9V11ZM6 9C3.79086 9 2 10.7909 2 13H4C4 11.8954 4.89543 11 6 11V9ZM4 13V11H2V13H4ZM20 11V13H22V11H20ZM12 3C16.4183 3 20 6.58172 20 11H22C22 5.47715 17.5228 1 12 1V3ZM4 11C4 6.58172 7.58172 3 12 3V1C6.47715 1 2 5.47715 2 11H4ZM20 14V16H22V14H20ZM15 21H12V23H15V21ZM20 16C20 18.7614 17.7614 21 15 21V23C18.866 23 22 19.866 22 16H20Z" fill="#3460FE"/>
</svg>
