<svg width="40" height="40" viewBox="0 0 40 40" fill="none" xmlns="http://www.w3.org/2000/svg">
<path d="M36.6667 20C36.6667 10.7953 29.2047 3.33337 20 3.33337" stroke="#3460FE" stroke-width="2.5" stroke-linecap="round"/>
<path d="M36.6654 20C36.6654 29.2048 29.2034 36.6667 19.9987 36.6667C10.794 36.6667 3.33203 29.2048 3.33203 20C3.33203 10.7953 10.794 3.33337 19.9987 3.33337" stroke="#3460FE" stroke-width="2.5" stroke-linecap="round" stroke-linejoin="round" stroke-dasharray="0.83 5"/>
<path d="M22.5 20C22.5 21.3807 21.3807 22.5 20 22.5C18.6193 22.5 17.5 21.3807 17.5 20C17.5 18.6193 18.6193 17.5 20 17.5C21.3807 17.5 22.5 18.6193 22.5 20Z" stroke="#FEFEFE" stroke-width="2.5"/>
<path d="M22.5013 20H26.668M20.0013 10V17.5" stroke="#FEFEFE" stroke-width="2.5" stroke-linecap="round" stroke-linejoin="round"/>
</svg>
