<svg width="40" height="40" viewBox="0 0 40 40" fill="none" xmlns="http://www.w3.org/2000/svg">
<path d="M5.05504 16.6667L34.9453 16.6667C36.6455 16.6667 37.3131 14.4143 35.8985 13.451L21.9065 3.92296C20.7521 3.13685 19.2482 3.13685 18.0938 3.92296L4.10185 13.451C2.68722 14.4143 3.35487 16.6667 5.05504 16.6667Z" stroke="#3460FE" stroke-width="2.5"/>
<rect x="6.6665" y="16.6666" width="8.33333" height="13.3333" stroke="#3460FE" stroke-width="2.5"/>
<rect x="25" y="16.6666" width="8.33333" height="13.3333" stroke="#3460FE" stroke-width="2.5"/>
<path d="M32.3031 30C32.9344 30 33.5115 30.3567 33.7938 30.9213L35.4605 34.2546C36.0146 35.3628 35.2088 36.6667 33.9698 36.6667L6.02989 36.6667C4.79092 36.6667 3.9851 35.3628 4.53918 34.2546L6.20585 30.9213C6.48817 30.3567 7.06527 30 7.69656 30L32.3031 30Z" stroke="#3460FE" stroke-width="2.5"/>
</svg>
