<svg width="32" height="32" viewBox="0 0 32 32" fill="none" xmlns="http://www.w3.org/2000/svg">
<path d="M29.3334 8V7C29.8857 7 30.3334 7.44772 30.3334 8H29.3334ZM29.3334 9H8.00004V7H29.3334V9ZM3.66671 13.3333V24H1.66671V13.3333H3.66671ZM8.00004 28.3333H24V30.3333H8.00004V28.3333ZM28.3334 24V8H30.3334V24H28.3334ZM24 28.3333C26.3933 28.3333 28.3334 26.3932 28.3334 24H30.3334C30.3334 27.4978 27.4979 30.3333 24 30.3333V28.3333ZM3.66671 24C3.66671 26.3932 5.60681 28.3333 8.00004 28.3333V30.3333C4.50224 30.3333 1.66671 27.4978 1.66671 24H3.66671ZM8.00004 9C5.6068 9 3.66671 10.9401 3.66671 13.3333H1.66671C1.66671 9.83553 4.50223 7 8.00004 7V9Z" fill="#3460FE"/>
<path d="M29.3334 7.00002C29.8857 7.00002 30.3334 7.44774 30.3334 8.00002C30.3334 8.55231 29.8857 9.00002 29.3334 9.00002V7.00002ZM24 3.66669H16V1.66669H24V3.66669ZM10.6667 7.00002H29.3334V9.00002H10.6667V7.00002ZM16 3.66669C13.6068 3.66669 11.6667 5.60679 11.6667 8.00002H9.66671C9.66671 4.50222 12.5022 1.66669 16 1.66669V3.66669ZM24 1.66669C27.4978 1.66669 30.3334 4.50222 30.3334 8.00002H28.3334C28.3334 5.60679 26.3933 3.66669 24 3.66669V1.66669Z" fill="#3460FE"/>
<path d="M2.66663 16L1.66663 16C1.66663 15.4477 2.11434 15 2.66663 15L2.66663 16ZM2.66663 21.3333L2.66663 22.3333C2.11434 22.3333 1.66663 21.8856 1.66663 21.3333L2.66663 21.3333ZM3.66663 16L3.66663 21.3333L1.66663 21.3333L1.66663 16L3.66663 16ZM2.66663 20.3333L7.99996 20.3333L7.99996 22.3333L2.66663 22.3333L2.66663 20.3333ZM7.99996 17L2.66663 17L2.66663 15L7.99996 15L7.99996 17ZM9.66663 18.6667C9.66663 17.7462 8.92043 17 7.99996 17L7.99996 15C10.025 15 11.6666 16.6416 11.6666 18.6667L9.66663 18.6667ZM7.99996 20.3333C8.92043 20.3333 9.66663 19.5871 9.66663 18.6667L11.6666 18.6667C11.6666 20.6917 10.025 22.3333 7.99996 22.3333L7.99996 20.3333Z" fill="#3460FE"/>
</svg>
