<svg width="32" height="32" viewBox="0 0 32 32" fill="none" xmlns="http://www.w3.org/2000/svg">
<path d="M24 9.33333H25C25 9.06812 24.8946 8.81376 24.7071 8.62623C24.5195 8.43869 24.2652 8.33333 24 8.33333V9.33333ZM7.99996 9.33333V8.33333C7.73474 8.33333 7.48039 8.43869 7.29285 8.62623C7.10532 8.81376 6.99996 9.06812 6.99996 9.33333H7.99996ZM7.99996 4V5V4ZM24 4V3V4ZM24 25.3333H23H24ZM23 9.33333L23 25.3333H25L25 9.33333H23ZM21.3333 27H10.6666V29H21.3333V27ZM8.99996 25.3333V9.33333H6.99996V25.3333H8.99996ZM7.99996 10.3333L24 10.3333V8.33333L7.99996 8.33333V10.3333ZM7.99996 5L24 5V3L7.99996 3V5ZM3.66663 9.33333C3.66663 6.9401 5.60673 5 7.99996 5V3C4.50216 3 1.66663 5.83553 1.66663 9.33333H3.66663ZM7.99996 13.6667C5.60672 13.6667 3.66663 11.7266 3.66663 9.33333H1.66663C1.66663 12.8311 4.50216 15.6667 7.99996 15.6667V13.6667ZM28.3333 9.33333C28.3333 11.7266 26.3932 13.6667 24 13.6667V15.6667C27.4978 15.6667 30.3333 12.8311 30.3333 9.33333H28.3333ZM30.3333 9.33333C30.3333 5.83553 27.4978 3 24 3V5C26.3932 5 28.3333 6.9401 28.3333 9.33333H30.3333ZM23 25.3333C23 26.2538 22.2538 27 21.3333 27V29C23.3583 29 25 27.3584 25 25.3333H23ZM10.6666 27C9.74615 27 8.99996 26.2538 8.99996 25.3333H6.99996C6.99996 27.3584 8.64158 29 10.6666 29V27Z" fill="#3460FE"/>
<path d="M19.3737 20.7072C19.7643 20.3166 19.7643 19.6835 19.3737 19.293C18.9832 18.9024 18.35 18.9024 17.9595 19.293L19.3737 20.7072ZM16.9428 21.7239L17.6499 22.431V22.431L16.9428 21.7239ZM15.0572 21.7239L15.7643 21.0168V21.0168L15.0572 21.7239ZM14.0404 19.293C13.6499 18.9024 13.0167 18.9024 12.6262 19.293C12.2357 19.6835 12.2357 20.3166 12.6262 20.7072L14.0404 19.293ZM17 14.6667C17 14.1144 16.5522 13.6667 16 13.6667C15.4477 13.6667 15 14.1144 15 14.6667H17ZM15 21.3334C15 21.8857 15.4477 22.3334 16 22.3334C16.5522 22.3334 17 21.8857 17 21.3334H15ZM17.9595 19.293L16.2357 21.0168L17.6499 22.431L19.3737 20.7072L17.9595 19.293ZM15.7643 21.0168L14.0404 19.293L12.6262 20.7072L14.35 22.431L15.7643 21.0168ZM16.2357 21.0168C16.1055 21.147 15.8944 21.147 15.7643 21.0168L14.35 22.431C15.2613 23.3422 16.7387 23.3422 17.6499 22.431L16.2357 21.0168ZM15 14.6667V21.3334H17V14.6667H15Z" fill="#3460FE"/>
</svg>
