<svg width="32" height="32" viewBox="0 0 32 32" fill="none" xmlns="http://www.w3.org/2000/svg">
<path d="M9.66663 8.00002C9.66663 8.5523 10.1143 9.00002 10.6666 9.00002C11.2189 9.00002 11.6666 8.5523 11.6666 8.00002H9.66663ZM20.3333 8.00002C20.3333 8.5523 20.781 9.00002 21.3333 9.00002C21.8856 9.00002 22.3333 8.5523 22.3333 8.00002H20.3333ZM3.221 12.9644C2.76136 12.6582 2.14054 12.7826 1.83436 13.2423C1.52819 13.7019 1.6526 14.3228 2.11225 14.6289L3.221 12.9644ZM29.8877 14.6289C30.3473 14.3228 30.4717 13.7019 30.1656 13.2423C29.8594 12.7826 29.2386 12.6582 28.7789 12.9644L29.8877 14.6289ZM13.2039 18.2095C13.7535 18.2645 14.2435 17.8636 14.2985 17.3141C14.3535 16.7646 13.9527 16.2745 13.4031 16.2195L13.2039 18.2095ZM18.5968 16.2195C18.0473 16.2745 17.6464 16.7646 17.7014 17.3141C17.7564 17.8636 18.2465 18.2645 18.796 18.2095L18.5968 16.2195ZM7.99996 9.00002H24V7.00002H7.99996V9.00002ZM28.3333 13.3334V24H30.3333V13.3334H28.3333ZM24 28.3334H7.99996V30.3334H24V28.3334ZM3.66663 24V13.3334H1.66663V24H3.66663ZM7.99996 28.3334C5.60673 28.3334 3.66663 26.3933 3.66663 24H1.66663C1.66663 27.4978 4.50216 30.3334 7.99996 30.3334V28.3334ZM28.3333 24C28.3333 26.3933 26.3932 28.3334 24 28.3334V30.3334C27.4978 30.3334 30.3333 27.4978 30.3333 24H28.3333ZM24 9.00002C26.3932 9.00002 28.3333 10.9401 28.3333 13.3334H30.3333C30.3333 9.83555 27.4978 7.00002 24 7.00002V9.00002ZM7.99996 7.00002C4.50216 7.00002 1.66663 9.83555 1.66663 13.3334H3.66663C3.66663 10.9401 5.60673 9.00002 7.99996 9.00002V7.00002ZM11.6666 8.00002V6.66669H9.66663V8.00002H11.6666ZM14.6666 3.66669H17.3333V1.66669H14.6666V3.66669ZM20.3333 6.66669V8.00002H22.3333V6.66669H20.3333ZM17.3333 3.66669C18.9901 3.66669 20.3333 5.00983 20.3333 6.66669H22.3333C22.3333 3.90526 20.0947 1.66669 17.3333 1.66669V3.66669ZM11.6666 6.66669C11.6666 5.00983 13.0098 3.66669 14.6666 3.66669V1.66669C11.9052 1.66669 9.66663 3.90526 9.66663 6.66669H11.6666ZM2.66663 13.7967C2.11225 14.6289 2.11251 14.6291 2.11279 14.6293C2.11291 14.6294 2.1132 14.6296 2.11343 14.6297C2.11389 14.63 2.11442 14.6304 2.115 14.6308C2.11618 14.6315 2.11761 14.6325 2.11929 14.6336C2.12266 14.6358 2.12705 14.6387 2.13245 14.6422C2.14325 14.6493 2.1581 14.6589 2.17695 14.6709C2.21464 14.695 2.26831 14.7287 2.33753 14.7709C2.47594 14.8552 2.67661 14.9735 2.93595 15.1159C3.45444 15.4008 4.20855 15.7831 5.16943 16.1849C7.08978 16.988 9.84602 17.8734 13.2039 18.2095L13.4031 16.2195C10.2815 15.907 7.71931 15.0835 5.94108 14.3398C5.05268 13.9683 4.36248 13.6177 3.89897 13.3631C3.66731 13.2358 3.49257 13.1326 3.37831 13.063C3.32119 13.0282 3.27922 13.0018 3.25285 12.9849C3.23966 12.9765 3.23038 12.9705 3.22505 12.967C3.22239 12.9653 3.22071 12.9642 3.22004 12.9638C3.2197 12.9635 3.21961 12.9635 3.21977 12.9636C3.21985 12.9636 3.21999 12.9637 3.2202 12.9639C3.2203 12.9639 3.2205 12.9641 3.22055 12.9641C3.22077 12.9642 3.221 12.9644 2.66663 13.7967ZM18.796 18.2095C22.1539 17.8734 24.9101 16.988 26.8305 16.1849C27.7914 15.7831 28.5455 15.4008 29.064 15.1159C29.3233 14.9735 29.524 14.8552 29.6624 14.7709C29.7316 14.7287 29.7853 14.695 29.823 14.6709C29.8418 14.6589 29.8567 14.6493 29.8675 14.6422C29.8729 14.6387 29.8773 14.6358 29.8806 14.6336C29.8823 14.6325 29.8837 14.6315 29.8849 14.6308C29.8855 14.6304 29.886 14.63 29.8865 14.6297C29.8867 14.6296 29.887 14.6294 29.8871 14.6293C29.8874 14.6291 29.8877 14.6289 29.3333 13.7967C28.7789 12.9644 28.7791 12.9642 28.7794 12.9641C28.7794 12.9641 28.7796 12.9639 28.7797 12.9639C28.7799 12.9637 28.7801 12.9636 28.7801 12.9636C28.7803 12.9635 28.7802 12.9635 28.7799 12.9638C28.7792 12.9642 28.7775 12.9653 28.7749 12.967C28.7695 12.9705 28.7603 12.9765 28.7471 12.9849C28.7207 13.0018 28.6787 13.0282 28.6216 13.063C28.5074 13.1326 28.3326 13.2358 28.1009 13.3631C27.6374 13.6177 26.9472 13.9683 26.0588 14.3398C24.2806 15.0835 21.7184 15.907 18.5968 16.2195L18.796 18.2095Z" fill="#3460FE"/>
<path d="M18.6667 16.2133V17.5467C18.6667 17.56 18.6667 17.56 18.6667 17.5733C18.6667 19.0267 18.6534 20.2133 16 20.2133C13.36 20.2133 13.3334 19.04 13.3334 17.5867V16.2133C13.3334 14.88 13.3334 14.88 14.6667 14.88H17.3334C18.6667 14.88 18.6667 14.88 18.6667 16.2133Z" stroke="#3460FE" stroke-width="2" stroke-miterlimit="10" stroke-linecap="round" stroke-linejoin="round"/>
</svg>
