<svg width="32" height="32" viewBox="0 0 32 32" fill="none" xmlns="http://www.w3.org/2000/svg">
<ellipse cx="13.3333" cy="23.3334" rx="9.33333" ry="4.66667" stroke="#3460FE" stroke-width="2" stroke-linejoin="round"/>
<circle cx="13.3333" cy="9.33333" r="5.33333" stroke="#3460FE" stroke-width="2" stroke-linejoin="round"/>
<path fill-rule="evenodd" clip-rule="evenodd" d="M20.0597 13.6661C19.6303 14.3313 19.1049 14.9287 18.5032 15.4388C18.9758 15.5869 19.4786 15.6667 20.0001 15.6667C22.7615 15.6667 25.0001 13.4281 25.0001 10.6667C25.0001 8.05898 23.0038 5.91754 20.4561 5.68719C20.811 6.37915 21.0681 7.12958 21.209 7.92022C22.2638 8.38518 23.0001 9.43994 23.0001 10.6667C23.0001 12.3036 21.689 13.6343 20.0597 13.6661Z" fill="#3460FE"/>
<path fill-rule="evenodd" clip-rule="evenodd" d="M25.3328 23.4085C25.3194 24.2274 25.0863 25.0142 24.6678 25.7478C25.159 25.6127 25.6191 25.4561 26.0416 25.2801C26.8377 24.9484 27.5473 24.5279 28.0732 24.0099C28.6026 23.4884 29.0001 22.8086 29.0001 22C29.0001 21.1914 28.6026 20.5116 28.0732 19.9901C27.5473 19.4721 26.8377 19.0517 26.0416 18.7199C24.678 18.1518 22.9208 17.7859 20.9993 17.6912C22.3355 18.3699 23.4268 19.2226 24.1801 20.1924C24.5771 20.3033 24.9429 20.4288 25.2723 20.5661C25.9239 20.8375 26.3858 21.1353 26.6696 21.4149C26.9499 21.691 27.0001 21.8881 27.0001 22C27.0001 22.1119 26.9499 22.309 26.6696 22.5851C26.3947 22.856 25.9525 23.1439 25.3328 23.4085Z" fill="#3460FE"/>
</svg>
