<svg width="64" height="64" viewBox="0 0 64 64" fill="none" xmlns="http://www.w3.org/2000/svg">
<g clip-path="url(#clip0_450_585)">
<path d="M54.762 34.165H49.8125C50.317 35.5463 50.5926 37.0369 50.5926 38.5905V57.2968C50.5926 57.9446 50.4799 58.5663 50.2748 59.1446H58.4574C61.514 59.1446 64.0007 56.6578 64.0007 53.6013V43.4037C64.0008 38.3095 59.8563 34.165 54.762 34.165Z" fill="#00EBFF"/>
<path d="M13.4082 38.5907C13.4082 37.037 13.6838 35.5465 14.1883 34.1652H9.23877C4.14451 34.1652 0 38.3097 0 43.404V53.6016C0 56.6581 2.48663 59.1449 5.54326 59.1449H13.726C13.5209 58.5664 13.4082 57.9448 13.4082 57.297V38.5907Z" fill="#00EBFF"/>
<path d="M37.6576 29.3519H26.3423C21.248 29.3519 17.1035 33.4964 17.1035 38.5907V57.297C17.1035 58.3174 17.9308 59.1447 18.9513 59.1447H45.0486C46.0691 59.1447 46.8963 58.3175 46.8963 57.297V38.5907C46.8963 33.4964 42.7518 29.3519 37.6576 29.3519Z" fill="#3460FE"/>
<path d="M31.9994 4.85498C25.8729 4.85498 20.8887 9.83924 20.8887 15.9659C20.8887 20.1215 23.1823 23.7509 26.5696 25.6564C28.1762 26.5602 30.0284 27.0767 31.9994 27.0767C33.9704 27.0767 35.8227 26.5602 37.4293 25.6564C40.8167 23.7509 43.1102 20.1214 43.1102 15.9659C43.1102 9.83936 38.126 4.85498 31.9994 4.85498Z" fill="#3460FE"/>
<path d="M12.4891 15.2112C7.90719 15.2112 4.17969 18.9387 4.17969 23.5206C4.17969 28.1025 7.90719 31.83 12.4891 31.83C13.6513 31.83 14.7581 31.5892 15.7635 31.1565C17.5017 30.4081 18.935 29.0833 19.8218 27.424C20.4443 26.2593 20.7985 24.9307 20.7985 23.5206C20.7985 18.9388 17.071 15.2112 12.4891 15.2112Z" fill="#00EBFF"/>
<path d="M51.5106 15.2112C46.9287 15.2112 43.2012 18.9387 43.2012 23.5206C43.2012 24.9308 43.5553 26.2595 44.1778 27.424C45.0647 29.0835 46.4979 30.4082 48.2362 31.1565C49.2416 31.5892 50.3483 31.83 51.5106 31.83C56.0924 31.83 59.82 28.1025 59.82 23.5206C59.82 18.9387 56.0924 15.2112 51.5106 15.2112Z" fill="#00EBFF"/>
</g>
<defs>
<clipPath id="clip0_450_585">
<rect width="64" height="64" fill="white"/>
</clipPath>
</defs>
</svg>
