<svg width="24" height="24" viewBox="0 0 24 24" fill="none" xmlns="http://www.w3.org/2000/svg">
<path d="M6 5H18V3H6V5ZM21 8V16H23V8H21ZM18 19H6V21H18V19ZM3 16V8H1V16H3ZM6 19C4.34315 19 3 17.6569 3 16H1C1 18.7614 3.23858 21 6 21V19ZM21 16C21 17.6569 19.6569 19 18 19V21C20.7614 21 23 18.7614 23 16H21ZM18 5C19.6569 5 21 6.34315 21 8H23C23 5.23858 20.7614 3 18 3V5ZM6 3C3.23858 3 1 5.23858 1 8H3C3 6.34315 4.34315 5 6 5V3Z" fill="#3460FE"/>
<path d="M5 6C4.44772 6 4 6.44772 4 7C4 7.55228 4.44772 8 5 8V6ZM7 8C7.55228 8 8 7.55228 8 7C8 6.44772 7.55228 6 7 6V8ZM5 8H7V6H5V8Z" fill="#FEFEFE"/>
<path d="M17 16C16.4477 16 16 16.4477 16 17C16 17.5523 16.4477 18 17 18V16ZM19 18C19.5523 18 20 17.5523 20 17C20 16.4477 19.5523 16 19 16V18ZM17 18H19V16H17V18Z" fill="#FEFEFE"/>
<path d="M13 12C13 12.5523 12.5523 13 12 13V15C13.6569 15 15 13.6569 15 12H13ZM12 13C11.4477 13 11 12.5523 11 12H9C9 13.6569 10.3431 15 12 15V13ZM11 12C11 11.4477 11.4477 11 12 11V9C10.3431 9 9 10.3431 9 12H11ZM12 11C12.5523 11 13 11.4477 13 12H15C15 10.3431 13.6569 9 12 9V11Z" fill="#3460FE"/>
</svg>
