<svg width="20" height="20" viewBox="0 0 20 20" fill="none" xmlns="http://www.w3.org/2000/svg">
<path fill-rule="evenodd" clip-rule="evenodd" d="M9.99996 18.3333C14.6023 18.3333 18.3333 14.6024 18.3333 9.99999C18.3333 5.39762 14.6023 1.66666 9.99996 1.66666C5.39759 1.66666 1.66663 5.39762 1.66663 9.99999C1.66663 14.6024 5.39759 18.3333 9.99996 18.3333ZM10.625 5.83332C10.625 5.48815 10.3451 5.20832 9.99996 5.20832C9.65478 5.20832 9.37496 5.48815 9.37496 5.83332V9.99999C9.37496 10.269 9.5471 10.5078 9.80232 10.5929L12.3023 11.4263C12.6298 11.5354 12.9837 11.3584 13.0929 11.031C13.202 10.7035 13.0251 10.3496 12.6976 10.2404L10.625 9.54952V5.83332Z" fill="#6A698D"/>
</svg>
