<svg width="18" height="18" viewBox="0 0 18 18" fill="none" xmlns="http://www.w3.org/2000/svg">
<path d="M9 0.75C7.36831 0.75 5.77325 1.23385 4.41655 2.14038C3.05984 3.0469 2.00242 4.33537 1.378 5.84286C0.753575 7.35035 0.590197 9.00915 0.908525 10.6095C1.22685 12.2098 2.01259 13.6798 3.16637 14.8336C4.32016 15.9874 5.79017 16.7732 7.39051 17.0915C8.99085 17.4098 10.6497 17.2464 12.1571 16.622C13.6646 15.9976 14.9531 14.9402 15.8596 13.5835C16.7661 12.2268 17.25 10.6317 17.25 9C17.2474 6.81276 16.3774 4.71584 14.8308 3.16922C13.2842 1.6226 11.1872 0.75258 9 0.75ZM12.5303 7.65525L8.78025 11.4053C8.63961 11.5459 8.44888 11.6248 8.25 11.6248C8.05113 11.6248 7.8604 11.5459 7.71975 11.4053L5.46975 9.15525C5.39812 9.08607 5.34098 9.00331 5.30168 8.9118C5.26237 8.8203 5.24168 8.72189 5.24082 8.6223C5.23995 8.52272 5.25893 8.42396 5.29664 8.33179C5.33435 8.23961 5.39004 8.15587 5.46046 8.08545C5.53088 8.01504 5.61462 7.95935 5.70679 7.92163C5.79896 7.88392 5.89772 7.86495 5.9973 7.86581C6.09689 7.86668 6.1953 7.88737 6.28681 7.92667C6.37831 7.96598 6.46107 8.02312 6.53025 8.09475L8.25 9.8145L11.4698 6.59475C11.6112 6.45813 11.8007 6.38254 11.9973 6.38424C12.194 6.38595 12.3821 6.46483 12.5211 6.60389C12.6602 6.74294 12.7391 6.93105 12.7408 7.1277C12.7425 7.32435 12.6669 7.5138 12.5303 7.65525Z" fill="#6CD176"/>
</svg>
